<svg id="Camada_1" data-name="Camada 1" xmlns="http://www.w3.org/2000/svg" viewBox="0 0 2323 2000"><defs><style>.cls-1{fill:#a16ee7;opacity:0.5;isolation:isolate;}.cls-2{fill:#8b5dd0;}.cls-3{fill:#f2f2f2;}.cls-4{fill:#f47257;}.cls-5{fill:#31dae7;}.cls-6{fill:#e1dde7;}.cls-7{fill:#50bfa5;}.cls-8{fill:#3c8f7c;}.cls-9{fill:#f36b80;}.cls-10{fill:#e25a74;}.cls-11{fill:#5c407b;}.cls-12{fill:#fff;}.cls-13{fill:#e4c4ff;}.cls-14{fill:#ffb3c5;}.cls-15{fill:#f7a491;}.cls-16{fill:#ea94ad;}.cls-17{fill:#472a6a;}</style></defs><g id="_ÎÓÈ_2" data-name=" ÎÓÈ 2"><path class="cls-1" d="M474.51,1998.76c-30-820,862-750,677.93-1261.07C995.13,300.9,133.51,504.76-2.49-1.24h2323v2000Z" transform="translate(2.49 1.24)"/></g><g id="Layer_1" data-name="Layer 1"><path class="cls-2" d="M1859.36,1545.83c-24.08-20.13-36.42-38.76-38.65-42.29l84.66-53.48s-.12-.2-.37-.56c.07.1,7.12,10.47,21.22,21.67a132.17,132.17,0,0,0,62.18,27.1c29.62,4.71,60.16-5.19,80.58-14.28a219,219,0,0,0,38.15-21.6l75.07,14.5-14.11,64.94c-29.33,22.47-76,44.75-119.16,53.32C1977.23,1609.34,1908.77,1587.17,1859.36,1545.83Z" transform="translate(2.49 1.24)"/><path class="cls-3" d="M1981.85,841.3l19.88-10.3,19.76,10.53a3.09,3.09,0,0,0,4.17-1.27,3.13,3.13,0,0,0,.32-2l-3.66-22.07,16.11-15.56a3.07,3.07,0,0,0,.08-4.35,3.1,3.1,0,0,0-1.75-.91l-22.12-3.34-9.8-20.12a3.06,3.06,0,0,0-4.12-1.39,3,3,0,0,0-1.39,1.39l-10,20-22.17,3.09a3.07,3.07,0,0,0-2.62,3.46,3.13,3.13,0,0,0,.89,1.77L1981.34,816l-3.9,22a3.06,3.06,0,0,0,2.52,3.54A3,3,0,0,0,1981.85,841.3Z" transform="translate(2.49 1.24)"/><rect class="cls-4" x="965.05" y="1246.83" width="977.62" height="102.33"/><path class="cls-5" d="M1680.15,1607.79c-220.41-116.57-459.91-188.32-705.75-211.47l27.33-320c284.24,26.8,561.1,109.78,816,244.51Z" transform="translate(2.49 1.24)"/><path class="cls-6" d="M996.07,1337.81q9.33-99.78,18.63-199.58c25.84,2.65,49-14,51.79-37.92,237,29.77,467.92,99,684.16,205-9.61,21.85,1.67,48.84,24.95,60.91q-42.22,89.89-84.46,179.84a40.63,40.63,0,0,0-54.93,16.86c-.52,1-1,2-1.45,3a1903.88,1903.88,0,0,0-600.8-180C1036.77,1362.14,1019.85,1340.25,996.07,1337.81Z" transform="translate(2.49 1.24)"/><path class="cls-7" d="M1504.79,1348.78c-19.88,57.23-81.15,86.38-138,68.91s-93.35-76.93-80.53-136.35,75.8-94.86,139.71-75.09S1524.64,1291.67,1504.79,1348.78Z" transform="translate(2.49 1.24)"/><path class="cls-8" d="M1366.31,1397.58q2.39-9.58,4.76-19.17a103.63,103.63,0,0,1-23.16-10.84,12.37,12.37,0,0,1-4.46-16.06l.34-.68a11.9,11.9,0,0,1,16.12-4.81,9.77,9.77,0,0,1,1,.63,76.47,76.47,0,0,0,21.24,9.84c11.61,3.25,20.68,1.14,22.78-6.92,2-7.62-3.3-14.41-17.34-23.73-20.32-13.41-33.27-27.4-28.8-47.09,4-17.82,20.5-28.52,44.47-26.39q2.36-9.6,4.7-19.18,10.58,2.92,21.12,6-2.27,8.86-4.52,17.72a97.52,97.52,0,0,1,18.76,8.36c6.05,3.59,8.21,11.06,4.89,16.7h0c-3.45,5.82-11.32,7.49-17.44,3.69a69.33,69.33,0,0,0-17.9-7.89c-13.76-3.91-19.6.56-21,6.2-1.63,6.68,4.73,12.89,20.81,24.44,22.64,15.67,29.39,29.84,24.44,47.83-5,17.83-21.85,29-46,26.37q-2.65,10.26-5.31,20.52Q1376.12,1400.26,1366.31,1397.58Z" transform="translate(2.49 1.24)"/><path class="cls-7" d="M1252.61,1279.16q-84.28-19.46-170-31.64l4-30.77q86.9,12.33,172.43,32.09Q1255.78,1264,1252.61,1279.16Z" transform="translate(2.49 1.24)"/><path class="cls-7" d="M1690.75,1434.69q-78.45-38.36-159.48-69.79,5.13-14.57,10.25-29.13,82.13,31.86,161.71,70.78Z" transform="translate(2.49 1.24)"/><path class="cls-5" d="M1783.16,1241.66c-227.46,47.54-444.05,142.74-638.37,280.67l-157.52-271.8C1212,1091.06,1462.38,981,1725.37,926Q1754.28,1083.81,1783.16,1241.66Z" transform="translate(2.49 1.24)"/><path class="cls-3" d="M1128.3,1462l-97.07-170.51c20.54-14.32,28.36-42.29,17.18-63.1,191.45-127.06,400.35-218.88,618.88-272.1,5,23.5,28.35,37.78,52.23,32.57q18.72,98.39,37.48,196.71c-22,4.8-35.6,28.22-30.56,51.69C1534.56,1284,1351.12,1364.68,1183,1476.23,1171.83,1455.49,1147.21,1448.85,1128.3,1462Z" transform="translate(2.49 1.24)"/><path class="cls-5" d="M1509.91,1147.26c17.11,58.13-11.94,120.27-63.59,142.53s-111.6-1.84-135.16-57.2,3.27-123.6,61.43-148.54S1492.84,1089.23,1509.91,1147.26Z" transform="translate(2.49 1.24)"/><path class="cls-3" d="M1434.78,1274.08l-7.13-18.27a89.88,89.88,0,0,1-23.13,6.11c-5.91.7-11.23-3.63-12.2-9.93a6.63,6.63,0,0,0-.11-.76c-1-6.91,3.72-13.55,10.37-14.22a66.32,66.32,0,0,0,21.13-5.69c10.37-4.8,15.92-12.24,13-20-2.78-7.32-10.44-9.35-26-7.83-22.48,2.26-39.77-.63-47.41-19.13-6.91-16.74-.69-35.69,18.16-49.26q-3.59-9.13-7.18-18.24,9.42-4.41,18.9-8.65,3.25,8.49,6.5,17a85.65,85.65,0,0,1,18.49-5.28,11.17,11.17,0,0,1,12.78,9.29c0,.29.08.58.1.87h0a12.85,12.85,0,0,1-10.82,14,61.11,61.11,0,0,0-17.6,5.1c-12.32,5.65-14.15,12.92-12,18.28,2.5,6.35,10.65,7.23,28.93,6.19,25.41-1.94,38.28,5,44.6,22.47,6.24,17.29,0,37-19.31,50.22l7.47,19.69Q1443.52,1270,1434.78,1274.08Z" transform="translate(2.49 1.24)"/><path class="cls-7" d="M1285.06,1252.24q-73,38.13-143.1,83l-14.16-27q71-45.45,145.11-84.14Q1279,1238.16,1285.06,1252.24Z" transform="translate(2.49 1.24)"/><path class="cls-5" d="M1694.88,1097.3q-79.22,19.38-156.45,45.92l-8.64-29.67q78.29-26.88,158.66-46.56Q1691.67,1082.14,1694.88,1097.3Z" transform="translate(2.49 1.24)"/><path class="cls-5" d="M1819.45,1440.49c-236.55-14.34-473.44,20.38-698.21,102.33L1028.41,1238c259.88-94.75,533.78-134.89,807.31-118.31Q1827.57,1280.08,1819.45,1440.49Z" transform="translate(2.49 1.24)"/><path class="cls-3" d="M1118.94,1480.09q-28.25-95.4-56.51-190.76c23.7-8.42,38-33.41,31.72-56.5,219.38-72.16,447.87-105.66,676.87-99.2-.48,24.07,19.31,44.08,44.19,45.37l-8.64,200.3c-22.91-1.18-41.85,17.87-42.35,41.93a1743,1743,0,0,0-594.39,87.11C1163.62,1485.27,1140.71,1472.35,1118.94,1480.09Z" transform="translate(2.49 1.24)"/><path class="cls-5" d="M1570.57,1276.66c3.45,60.8-39.86,113.23-96.25,121.07s-110.2-31.37-120.66-91.2,32-118.76,95.5-127.46S1567.17,1216,1570.57,1276.66Z" transform="translate(2.49 1.24)"/><path class="cls-3" d="M1466.58,1379.47q-1.41-9.79-2.81-19.57a93.19,93.19,0,0,1-24.35-.22,11.81,11.81,0,0,1-9.79-12.84,3.34,3.34,0,0,1,.06-.77,12,12,0,0,1,13.57-11,68.21,68.21,0,0,0,22.27.1c11.4-1.89,18.62-7.62,17.54-15.88-1-7.82-8.18-11.83-23.94-14.47-22.76-3.77-39.29-11.16-42.54-31.12-2.95-18,7.63-34.72,29.49-42.86q-1.42-9.78-2.87-19.55,10.38-1.74,20.75-3.4l2.49,18.15a87.63,87.63,0,0,1,19.56-.21,11.74,11.74,0,0,1,10.41,12.92c0,.11,0,.22,0,.33h0a12.5,12.5,0,0,1-14,10.7,63.29,63.29,0,0,0-18.64.28c-13.54,2.2-17,8.74-16.19,14.5,1,6.8,8.87,9.82,27.24,13.66,25.64,4.86,36.78,15,39,33.59s-8.64,35.78-30.84,43.48l2.83,21Q1476.15,1377.84,1466.58,1379.47Z" transform="translate(2.49 1.24)"/><path class="cls-7" d="M1323.23,1318.63Q1242,1336.17,1162.05,1361l-7.78-29.86q81-25.15,163.44-42.95Z" transform="translate(2.49 1.24)"/><path class="cls-7" d="M1765.56,1277.37q-83-2.25-165.81,2.94l-1.62-31q83.85-5.25,168.13-3Z" transform="translate(2.49 1.24)"/><rect class="cls-9" x="965.05" y="1246.83" width="977.62" height="430.26"/><path class="cls-10" d="M1940.18,1566H1698.27c-10.72,0-19.42,9.1-19.42,20.33h0c0,11.24,8.7,20.34,19.42,20.34h-31.36c-10.73,0-19.42,9.1-19.42,20.33h0c0,11.24,8.69,20.34,19.42,20.34h5.43c-10.73,0-19.42,9.1-19.42,20.34a20.8,20.8,0,0,0,1.64,8.16h285.62Z" transform="translate(2.49 1.24)"/><rect class="cls-10" x="1001.08" y="1268" width="889.95" height="33.41"/><rect class="cls-11" x="954.29" y="1404.53" width="467.3" height="267.22" rx="32.85"/><rect class="cls-3" x="984.34" y="1457.67" width="115.08" height="66.91"/><rect class="cls-3" x="1187.94" y="1440.72" width="204.07" height="12.49"/><rect class="cls-5" x="1001.29" y="1583.45" width="375.56" height="15.43"/><rect class="cls-5" x="1001.29" y="1619.78" width="375.56" height="15.43"/><rect class="cls-10" x="1012.38" y="1356.68" width="414.95" height="11.09"/><circle class="cls-6" cx="1664.84" cy="1192.62" r="92.42"/><path class="cls-5" d="M1725.83,1146.84a77.54,77.54,0,1,1-108-18.93,77.54,77.54,0,0,1,108,18.93Z" transform="translate(2.49 1.24)"/><path class="cls-3" d="M1671.31,1245.93l-3.38-12.5a62.78,62.78,0,0,1-16.51,1.45,7.86,7.86,0,0,1-7.47-7.78v-.5a7.86,7.86,0,0,1,7.75-8c.2,0,.4,0,.6,0a46.16,46.16,0,0,0,14.94-1.4c7.49-2,11.84-6.31,10.42-11.57-1.36-5-6.42-7-17.05-7.67-15.35-.93-26.73-4.91-30.18-17.68-3.14-11.57,2.59-22.85,15.9-29.39l-3.38-12.49,12.89-3.46,3.13,11.57a58.27,58.27,0,0,1,12.48-1.51,7.86,7.86,0,0,1,7.86,7.78h0a7.89,7.89,0,0,1-7.78,8h-.26a41.53,41.53,0,0,0-12,1.48c-8.55,2.31-10.32,6.75-9.32,10.43,1.17,4.32,6.52,5.86,18.84,7,17.15,1.29,25.42,6.82,28.63,18.66s-2.42,23.95-16.84,30.67l3.63,13.42Z" transform="translate(2.49 1.24)"/><circle class="cls-3" cx="1752.03" cy="1488.38" r="92.42"/><path class="cls-5" d="M1813,1442.6a77.55,77.55,0,1,1-108-18.93,77.54,77.54,0,0,1,108,18.93Z" transform="translate(2.49 1.24)"/><path class="cls-12" d="M1758.49,1541.69l-3.38-12.49a62.66,62.66,0,0,1-16.5,1.44,7.85,7.85,0,0,1-7.47-7.77v-.51a7.86,7.86,0,0,1,7.74-8h.61a45.47,45.47,0,0,0,14.92-1.4c7.51-2,11.85-6.31,10.43-11.57-1.35-5-6.41-7-17-7.67-15.36-.93-26.74-4.91-30.19-17.67-3.13-11.58,2.59-22.86,15.9-29.39l-3.38-12.5,12.89-3.46,3.13,11.58a57.56,57.56,0,0,1,12.47-1.52,7.86,7.86,0,0,1,7.87,7.78h0a7.87,7.87,0,0,1-7.77,8h-.27a41.93,41.93,0,0,0-12,1.49c-8.54,2.31-10.31,6.74-9.31,10.42,1.17,4.32,6.52,5.86,18.84,7,17.15,1.29,25.42,6.82,28.62,18.65s-2.41,23.95-16.83,30.68l3.62,13.41Z" transform="translate(2.49 1.24)"/><circle class="cls-3" cx="1572.43" cy="1372.68" r="92.42"/><circle class="cls-5" cx="1572.39" cy="1372.78" r="77.55"/><path class="cls-3" d="M1545.93,1421.24l4.41-12.17a62.81,62.81,0,0,1-14.35-8.3,7.87,7.87,0,0,1-1.65-10.64l.29-.42a7.86,7.86,0,0,1,10.92-2.08c.17.11.33.23.49.35a45.78,45.78,0,0,0,13,7.44c7.31,2.65,13.32,1.64,15.18-3.46,1.73-4.87-1.22-9.43-9.51-16.07-12-9.59-19-19.38-14.55-31.81,4.08-11.23,15.23-17.22,29.91-14.95l4.42-12.17,12.55,4.55-4.08,11.24a58.35,58.35,0,0,1,11.07,5.93,7.86,7.86,0,0,1,2,10.88h0a7.85,7.85,0,0,1-10.92,2.08l-.24-.16a41.93,41.93,0,0,0-10.67-5.68c-8.33-3-12.33-.4-13.62,3.18-1.53,4.23,2,8.54,11.37,16.59,13.3,10.91,16.89,20.18,12.72,31.71s-15.74,18.21-31.41,15.44l-4.73,13.07Z" transform="translate(2.49 1.24)"/><rect class="cls-10" x="1472.47" y="1425.98" width="418.55" height="224.32"/><path class="cls-10" d="M1678.85,1586.33h0c0,11.24,8.7,20.34,19.42,20.34h-31.36c-10.73,0-19.42,9.1-19.42,20.33h0c0,11.24,8.69,20.34,19.42,20.34h5.43a18.63,18.63,0,0,0-7.78,1.73h224V1566H1698.27C1687.55,1566,1678.85,1575.1,1678.85,1586.33Z" transform="translate(2.49 1.24)"/><path class="cls-2" d="M620.37,1669.29h0a6.34,6.34,0,0,0,6,6.55H2144a6.32,6.32,0,0,0,6.05-6.55h0a6.33,6.33,0,0,0-6.05-6.56H626.48a6.34,6.34,0,0,0-6.11,6.55Z" transform="translate(2.49 1.24)"/><path class="cls-5" d="M1942.64,1688h-249.8a18.15,18.15,0,0,1-18.15-18.15h0a18.14,18.14,0,0,1,18.15-18.15h249.8a18.15,18.15,0,0,1,18.15,18.15h0A18.16,18.16,0,0,1,1942.64,1688Z" transform="translate(2.49 1.24)"/><path class="cls-3" d="M1937.55,1651.7H1687.76a18.16,18.16,0,0,1-18.16-18.15h0a18.16,18.16,0,0,1,18.16-18.16h249.79a18.16,18.16,0,0,1,18.16,18.16h0A18.16,18.16,0,0,1,1937.55,1651.7Z" transform="translate(2.49 1.24)"/><path class="cls-5" d="M1966.87,1615.39h-249.8a18.15,18.15,0,0,1-18.15-18.15h0a18.16,18.16,0,0,1,18.15-18.15h249.8a18.15,18.15,0,0,1,18.15,18.15h0A18.14,18.14,0,0,1,1966.87,1615.39Z" transform="translate(2.49 1.24)"/><polygon class="cls-3" points="1651.62 830.73 1654.79 852.22 1620.76 861.16 1621.53 893.17 1597.15 904.03 1602.65 916.37 1635.25 901.85 1634.52 871.51 1669.92 862.22 1665.14 829.86 1651.62 830.73"/><path class="cls-9" d="M1327.28,761.41l6.56-16.27a85.51,85.51,0,0,1-19-11.92,10.68,10.68,0,0,1-1.73-14.51l.41-.54a10.65,10.65,0,0,1,14.88-2.34c.23.17.46.35.68.54a62.24,62.24,0,0,0,17.28,10.69c9.77,3.94,18,2.85,20.75-4,2.59-6.51-1.2-12.84-12.15-22.22-15.85-13.56-24.91-27.17-18.21-43.78,6-15.08,21.46-22.62,41.24-18.83l6.56-16.27,16.79,6.75-6,15.09a79,79,0,0,1,14.69,8.55,10.66,10.66,0,0,1,2.15,14.84h0a10.66,10.66,0,0,1-14.91,2.28l-.3-.23a56.88,56.88,0,0,0-14.19-8.19c-11.14-4.49-16.67-1.14-18.6,3.66-2.28,5.65,2.27,11.67,14.62,23,17.49,15.42,21.91,28.15,15.7,43.57-6.15,15.24-22.18,23.91-43.22,19.4l-7,17.48Z" transform="translate(2.49 1.24)"/><path class="cls-5" d="M1358.31,935.09a6.83,6.83,0,0,1-1.18,8.59,66.85,66.85,0,0,1-21.29,12.84c-13.33,5-28.13,5.49-41.49-.57A49.65,49.65,0,0,1,1273,936.54l-7.82,2.93a5.19,5.19,0,0,1-6.66-3l-.08-.2a5.19,5.19,0,0,1,3-6.67l6.47-2.43c-1-2.14-1.77-3.45-2.22-4.69a50.08,50.08,0,0,1-2-7.3l-6.66,2.5a5.19,5.19,0,0,1-6.67-3h0a5.19,5.19,0,0,1,3-6.67l8.08-3a53.18,53.18,0,0,1,3.85-28.41c6.43-14.17,18.55-24.25,32.49-29.48a58.51,58.51,0,0,1,20.21-4,7,7,0,0,1,7.06,6.66v.12a7,7,0,0,1-6.67,7.3h-.08a50.21,50.21,0,0,0-15.72,3.34c-8.88,3.34-16.71,9.51-21.2,19a31.07,31.07,0,0,0-2.37,18.86l45.45-17.06a5.17,5.17,0,0,1,6.66,3h0a5.18,5.18,0,0,1-3,6.66l-47.47,17.81c.63,2.3,1.26,4.6,1.8,6.05.67,1.82,1.35,3.64,2.47,6L1332.44,903a5.3,5.3,0,0,1,6.81,3.09h0a5.28,5.28,0,0,1-3.07,6.8h0L1290.61,930a32.78,32.78,0,0,0,13.33,11.59c9.93,4.32,19.07,4.13,29.17.35a57.51,57.51,0,0,0,15.17-8.56,6.82,6.82,0,0,1,9.58,1.1,7.17,7.17,0,0,1,.45.63Z" transform="translate(2.49 1.24)"/><polygon class="cls-5" points="1236.71 774.33 1216.08 776.42 1209.04 743.59 1178.49 742.92 1169.2 719.22 1157.21 723.92 1169.63 755.63 1198.58 756.25 1205.9 790.4 1236.94 787.26 1236.71 774.33"/><path class="cls-13" d="M1472.7,748.53l22.07,7.29s35-11.35,38.46-18.48,4.41-24.44,9.39-24.92,14.61,1.15,16.9,13c1.67,8.6-10.93,33.45-9,36.09,1.22,1.66,13.82,6.21,23,9.38A17.22,17.22,0,0,1,1585,784.75h0a9.5,9.5,0,0,1-5.91,10.18l-6.35,2.46,2,6.55a9.51,9.51,0,0,1-6,11.74l-4.92,1.66,1.57,4a9.5,9.5,0,0,1-5.45,12.29c-.22.08-.44.16-.66.22l-4.32,1.25.18,1.15a9.51,9.51,0,0,1-6.91,10.59l-4.26,1.11-58.78-19.4a41.8,41.8,0,0,1-14.9-8.65l-19.53-10.31a4.86,4.86,0,0,1-2.27-5.89l18.1-52.13A4.85,4.85,0,0,1,1472.7,748.53Z" transform="translate(2.49 1.24)"/><path class="cls-3" d="M1123.43,982.06l4.67-23.17,21.73-9.28a3.24,3.24,0,0,0,.39-5.82l-20.59-11.6-2.11-23.54a3.24,3.24,0,0,0-5.43-2.1l-17.4,16-23-5.26a3.25,3.25,0,0,0-3.68,4.51l9.84,21.5-12.1,20.29a3.25,3.25,0,0,0,3.16,4.89l23.48-2.72,15.55,17.8a3.25,3.25,0,0,0,4.59.15A3.35,3.35,0,0,0,1123.43,982.06Z" transform="translate(2.49 1.24)"/><path class="cls-14" d="M839.82,1551.13s-29,20.88-33.52,27.11c-6.57,9,49.07,25.76,43,15.26-1.4-2.42-5.41-10.55-5.59-11.36-.93-4.32,10.88-15.8,10.88-15.8Z" transform="translate(2.49 1.24)"/><path class="cls-5" d="M864.35,1611.07l-19.67-27.8s-12.28-2.85-24.88-17c0,0-11.34,4.32-18.3,13.7A318.8,318.8,0,0,0,835,1610.1a92.72,92.72,0,0,0,28.64,16.27C880.23,1632,864.35,1611.07,864.35,1611.07Z" transform="translate(2.49 1.24)"/><path class="cls-14" d="M597.73,1170.48s3.56,3.14,4.82,4.1c1.48,1.13,6.15,4.16,6.15,4.16s16.91,9.62,17.48,8.35.55-4.91-.28-5.88-3.28-1.94-4.11-2.9a3.11,3.11,0,0,1,0-4c1.08-1.07,6.85,2.08,6.85,2.08s4.69,2.6,6.64,5.74c6.79,10.88,4.73,11.52,5.64,12.89,1.07,1.63,24.79,12.39,24.79,12.39s70.87,29.47,74.72,31.11h0c.52,3.29-1.24,6.3-2.14,9.21-1.72,10.13-4.71,10.8-7,20.57-10.88-5.51-86.15-47-93.81-51.29,0,0-11.46-2-18.63-3.46s-13.41-6-15.37-6.71a67.94,67.94,0,0,1-13.75-8.35c-6-4.7,1.77-2.93,1.77-2.93s12.77,6.77,13.1,5.7c.26-.86-6.92-4.12-13.7-9.27-1.73-1.32-3.46-2.59-5-3.84-4.11-3.2-3.39-6.55,1.42-3.87a54,54,0,0,1,6.32,4c2,1.56,4.32,2.37,6.14,3.46,3.68,2.12,6.34,3.7,6.34,3.46s1-.34-.79-1.8c-2.18-1.73-7.59-4.48-10.59-7.3-1.73-1.6-5.46-4.74-5.46-4.74s-4.81-5.76-4.58-6.14c1.27-2.06,5.66,1,7.69,3.46,2.08.93,5.94,4.32,5.94,4.32s9.3,5.19,10,3.92c.3-.54-5-4.39-9.71-9-4.32-4.25-8-9.22-7.34-10.17C592.43,1166.25,597.73,1170.48,597.73,1170.48Z" transform="translate(2.49 1.24)"/><path class="cls-10" d="M795.52,1336.47l4.59,22.66L915.3,1463.91l-82.46,83.44,22.27,22.76S976.89,1480.68,981.3,1469c6.76-18-87.3-137.55-87.3-137.55Z" transform="translate(2.49 1.24)"/><path class="cls-14" d="M715.64,1610.53s-23.24,25.32-27.8,31.56c-6.57,9,42.5,22.22,36.43,11.71-1.4-2.42-5.4-10.56-5.58-11.35-.93-4.32,10.88-15.8,10.88-15.8Z" transform="translate(2.49 1.24)"/><path class="cls-5" d="M750.14,1653l-32-11.69s-12.1,5.5-30.53,1a42.47,42.47,0,0,0-6.92,20.81s60.63,7.78,77.5,2.9S750.14,1653,750.14,1653Z" transform="translate(2.49 1.24)"/><path class="cls-9" d="M799.46,1347l5.18,143L702.43,1615.27l27.66,15.15s113.06-97,125.47-124.07c7.7-16.78,33.63-168.34,33.63-168.34Z" transform="translate(2.49 1.24)"/><path class="cls-3" d="M892.38,1335.24C883,1314.09,884.1,1162.5,847.63,1127c-12.83,2.17-22,3.39-24.12,4-1.9,15.61-4,72.92-5.28,125.44-.86,35,0,71.68-4.32,91C811.27,1359.38,900.94,1354.55,892.38,1335.24Z" transform="translate(2.49 1.24)"/><path class="cls-11" d="M793.68,1138.76c-10.24,2.34-17.78,4-31.19,23.79-12.84,19-41.36,64-41.36,64L646,1193.15l-3.51,38s85,44.18,97,40.19,45.7-53.25,48.19-56.58c.59-.78-2.83,52.62-2.83,61.16s-16.29,82.83-16.29,82.83,41.33,10.18,49.41-8.31c24.73-56.66,5.74-219.63,5.74-219.63S801,1137.08,793.68,1138.76Z" transform="translate(2.49 1.24)"/><path class="cls-14" d="M948,976.52c-3.15-2.64-4.53-9-5.05-13l-1.4-5.4c1.28-.53,26.32-4.09,33.88-4.28a13.4,13.4,0,0,1,.86,5.7c-1.12,6.17-9,46.26-9,46.26l-21.61.43S950.37,982.41,948,976.52Z" transform="translate(2.49 1.24)"/><path class="cls-11" d="M856.08,1135.87s14.81,42.12,27,36.05,80.62-75.84,81.29-79.21,5.41-89,5.41-89l-27.06-5.39-15.56,70.12s-50.08,47.88-60.23,52.6A18.85,18.85,0,0,0,856.08,1135.87Z" transform="translate(2.49 1.24)"/><path class="cls-11" d="M896,1345.37c8.2,0,11.24-1.13,16.68-2.77,0,0-15.61-87.95-24.67-175.17-3.59-34.45-6.92-48.57-21.13-46.08-4.11.71-15.25,5-19.28,5.64,35.71,101.06,35.83,178.84,40.89,201.4C891.07,1339.71,893.28,1345.44,896,1345.37Z" transform="translate(2.49 1.24)"/><path class="cls-15" d="M843.87,1111.73l3.74,15.3s.87,13.3-5.32,14.5c-7.44,1.43-18.5-9.7-18.5-9.7l-6.4-43.06Z" transform="translate(2.49 1.24)"/><path class="cls-14" d="M843.87,1111.73l3.74,15.3s.87,13.3-5.32,14.5c-7.44,1.43-18.5-9.7-18.5-9.7l-6.4-43.06Z" transform="translate(2.49 1.24)"/><path class="cls-16" d="M817.45,1088.92l26.41,22.81,2.79,11.41C836.56,1120.71,822.17,1109.59,817.45,1088.92Z" transform="translate(2.49 1.24)"/><path class="cls-14" d="M844,1049.31c6.38,0,12.1,4.41,14.38,10.79a135.74,135.74,0,0,1,5.76,22.1c2.8,16.56-6.63,31.72-14.84,32.93s-27.75-4.23-32.07-27.66c-1.85-10-4.33-23.24,4-30.16C827.6,1051.89,836.61,1049.33,844,1049.31Z" transform="translate(2.49 1.24)"/><path class="cls-9" d="M819.86,1105.32s-28.93-25.77-30.19-45.91,17.33-30.92,33.24-31.48a107.23,107.23,0,0,1,19.45,1c15.94,2,26.26,9.07,22.63,22.12-4.88,17.53-37.94,2.74-44.71,8.18-5.57,4.49,3.46,15.29-1.95,19.41-5.09,3.87-2.5,2.59-.82,9.92A129.71,129.71,0,0,1,819.86,1105.32Z" transform="translate(2.49 1.24)"/><path class="cls-14" d="M808.71,1082c.71,4.83,3.66,8.39,6.58,8s4.71-4.7,4-9.51-3.67-8.39-6.6-8S808,1077.14,808.71,1082Z" transform="translate(2.49 1.24)"/><path class="cls-16" d="M949.44,958a34.45,34.45,0,0,1,9.34,8.83s12.2-7.78,11.78-10.3c-.57-3.28-13,2.82-13,2.82Z" transform="translate(2.49 1.24)"/><path class="cls-9" d="M634.93,796.06,964.25,965.64c17.72,9.13,40.13.92,50-18.34l84.11-163.36c9.92-19.26,3.58-42.27-14.14-51.4L754.94,563c-17.72-9.12-40.13-.91-50,18.35L620.8,744.67C610.86,763.93,617.2,786.94,634.93,796.06Z" transform="translate(2.49 1.24)"/><rect class="cls-11" x="804.32" y="596.17" width="55.73" height="442.63" transform="translate(-273.06 1184.44) rotate(-62.76)"/><rect class="cls-3" x="752.37" y="583.92" width="54.13" height="97.59" transform="translate(-137.73 1036.54) rotate(-62.71)"/><path class="cls-14" d="M949.35,957.75c-.57-1.55-1.73-3.71-1.14-4.56,3.5-5.36-.28-11.24-2.84-6.63-1.48,2.64-4.07,8.48-3.86,11.51.16,2.2,2.39,10.58,2.39,10.58S952.6,966.53,949.35,957.75Z" transform="translate(2.49 1.24)"/><path class="cls-14" d="M1941.49,1522s-2,25.25-.38,33.46c.86,4.39,5.78,13.44,3.53,17.58s-4.82,5.18-4.82,5.18l-58.31.93c-3.18,0-1.08-2,1.48-3.82,4.19-3,7.58-5,21-11.4.86-.41,4-2.4,5.18-3.09a40.32,40.32,0,0,0,8.34-7.24c4.19-4.59,4.55-26.8,4.55-26.8Z" transform="translate(2.49 1.24)"/><path class="cls-17" d="M1895.91,1186.45s-25.07-12.36-20.24,14.51,41.55,329.1,41.55,329.1l34.39,1.9s4.4-100.76,3.46-115.23-6.67-36.86-6.67-36.86l-3-89.38L1913,1180.12Z" transform="translate(2.49 1.24)"/><path class="cls-11" d="M1909.13,1560.84c15.42,3.89,26.79,1.25,33.2-1.28,1.65,4.58,3.82,10.37,2.67,13.65-1.42,4.06-3.26,5.86-5,5.91-14.09.36-51.78,0-62.51.11a1.73,1.73,0,0,1-1.37-2.84C1878.78,1573.27,1908,1561.53,1909.13,1560.84Z" transform="translate(2.49 1.24)"/><path class="cls-14" d="M1875.67,1004.81s-21.2-40.77-24.48-55.74-14.67-90.35-13.72-95.17,19-16.54,16.74-20.66-19.37-4.14-23.33-3.79-11.82,2.65-15.2,5.43,3.79,93.13,5.94,112.58,28.47,79.34,28.47,79.34Z" transform="translate(2.49 1.24)"/><path class="cls-14" d="M2040.78,1322.61s17.48-18.33,21.38-25.74c2.08-4,4-14.08,8.32-15.87s7-1,7-1l45.87,36c2.5,2-.4,2.21-3.56,2-5.18-.28-9.05-.86-23.46-4.32-.94-.22-4.66-.68-6-.86a40,40,0,0,0-11,.37c-6.15.92-20.43,18-20.43,18Z" transform="translate(2.49 1.24)"/><path class="cls-11" d="M2090.33,1312.87c-9.51-12.74-20-17.87-26.59-19.88,1.61-4.59,3.37-10.61,6.36-12.45,3.66-2.26,6.18-1.79,7.59-.71,11.17,8.6,40.4,32.11,48.83,38.76a1.73,1.73,0,0,1,.32,2.43,1.75,1.75,0,0,1-1.05.64C2121.76,1322.38,2091.66,1313,2090.33,1312.87Z" transform="translate(2.49 1.24)"/><path class="cls-17" d="M2041.2,992.4c-10.88-22.83-35-35.38-58.35-29.31-8.37-11.33-21.33-19.26-34.81-21.18-26.59-3.76-60.91,9.14-57.4,36.9-8.41,19.42-6.35,46.18,10.43,59.29-3.08,25.52,22.47,48.17,52.8,45.11,12.19,16.82,33.38,26.69,53.19,22.85,4.75-.92,12-2.66,13.22-2.44-1.55-.17,34.58,23.47,59.44-18.63C2105.13,1042,2080.11,994,2041.2,992.4Z" transform="translate(2.49 1.24)"/><path class="cls-11" d="M1885.79,1196.18s56.18-25,57-22.14c7.05,22.7,29,15.37,42,55.32,5.45,16.74,11.05,128.1,11.05,128.1s22.16-18.39,53.84-50.53c2.43-2.47,26.24,20.18,26.24,20.18-62.87,85-90,89.38-100.49,84.62-21.9-9.93-68.11-148.8-68-148.79C1902,1252.18,1885.79,1196.18,1885.79,1196.18Z" transform="translate(2.49 1.24)"/><path class="cls-14" d="M1979,1039.29s81.25-.1,98.65-1.1c15.75-.91,78.19.68,80.63.39s18.59-27.61,21.27-24.68-9,13.56-5.38,16.31,42.35-3.46,41.85-.55c-1,5.36-23.57,4.68-23.54,7.26s23.65-1.45,25.26,2.85-22.74,1.73-23.72,3.67,22.59,5.43,20.18,9.42c-1.31,2.17-20.87-3.62-20.75-.66s14.37,9.69,12.61,12-11.19-7.24-19.47-7.36-14.21-4.43-27.43-.81c-6.52,1.79-56.34,7.88-98.45,11.48-43.14,3.69-78.52,4.86-78.52,4.86Z" transform="translate(2.49 1.24)"/><path class="cls-3" d="M1858.53,1096.78c-1.08-13,1.49-23.09,2.08-27.42-3.95-13.55-12.34-42.46-15.36-48.14,0,0,14.15-27.19,28.63-27,0,0,14.79,33.34,26.22,39.3.17,0,4.05,1.73,5.75,1.73,11.05-.08,49.62-1.25,56.82-1.38l-4.05,54.73c-27.95,54.8-20.38,83.56-9.75,94.22,5,5-69.76,25.31-73.2,18.22C1871.6,1192.6,1860.72,1123.11,1858.53,1096.78Z" transform="translate(2.49 1.24)"/><path class="cls-3" d="M1943.07,1035.88c7.11-3.4,58.61-1.73,58.61-1.73s7.2,35.86,1.38,44.48c0,0-46,6.85-44.74,10.63Z" transform="translate(2.49 1.24)"/><path class="cls-14" d="M1929.57,1012.84s-.87,19.56,0,27.65-8.36,27.25-25.63,27.59-2.53-18.33-1-26.35,3.33-39.4,3.33-39.4Z" transform="translate(2.49 1.24)"/><path class="cls-16" d="M1906.26,1002.38s-.42,7.28-1,15.73c5.44,6.5,13.83,9.82,24,5.86.1-6.05.34-11.13.34-11.13Z" transform="translate(2.49 1.24)"/><path class="cls-14" d="M1931,954.56a28.69,28.69,0,0,1,15.29,12.7c5.48,9.78,7.78,37.61-13.28,49.08s-35.54-7.77-34.58-25.55S1904.8,949.61,1931,954.56Z" transform="translate(2.49 1.24)"/><path class="cls-14" d="M1894.16,984.91c1.44,4.4,4.67,7.29,7.23,6.46s3.46-5.07,2.06-9.5-4.66-7.3-7.23-6.46S1892.7,980.51,1894.16,984.91Z" transform="translate(2.49 1.24)"/><path class="cls-17" d="M1928.06,953.77s10.7,29.27,21.61,32.57,9.8,17.58,9.8,17.58,2-33-7.88-41.3S1928.06,953.77,1928.06,953.77Z" transform="translate(2.49 1.24)"/><path class="cls-14" d="M1944.88,991.94c-1.78,4.52-.75,9.15,2.3,10.38s6.92-1.48,8.75-6,.75-9.15-2.3-10.38S1946.66,987.43,1944.88,991.94Z" transform="translate(2.49 1.24)"/><path class="cls-16" d="M1812.66,841.8s23.81,1,26.6,1,10.93-8.41,10.93-8.41Z" transform="translate(2.49 1.24)"/><circle class="cls-3" cx="1814.92" cy="750.49" r="92.42" transform="translate(3.39 1504.39) rotate(-45)"/><path class="cls-5" d="M1878.41,705.88A77.55,77.55,0,1,1,1770.36,687a77.56,77.56,0,0,1,108.05,18.93Z" transform="translate(2.49 1.24)"/><path class="cls-3" d="M1823.88,805l-3.38-12.5a63.56,63.56,0,0,1-16.51,1.45,7.87,7.87,0,0,1-7.46-7.78v-.5a7.85,7.85,0,0,1,7.74-8c.2,0,.4,0,.6,0a45.8,45.8,0,0,0,14.93-1.4c7.51-2,11.85-6.31,10.43-11.58-1.35-5-6.42-7-17-7.66-15.36-.94-26.74-4.91-30.19-17.68-3.13-11.57,2.59-22.85,15.9-29.39l-3.39-12.52L1808.4,694l3.13,11.58a57.56,57.56,0,0,1,12.47-1.52,7.86,7.86,0,0,1,7.87,7.78h0a7.86,7.86,0,0,1-7.75,8h-.29a41.58,41.58,0,0,0-12,1.49c-8.54,2.3-10.31,6.74-9.31,10.42,1.17,4.32,6.52,5.86,18.84,7,17.15,1.28,25.42,6.82,28.62,18.66s-2.42,23.94-16.83,30.66l3.62,13.42Z" transform="translate(2.49 1.24)"/><path class="cls-14" d="M1839.26,842.84l9.83-8.82s-4.64-5.54-2.71-6.61c3.13-1.72,8.5,5,8,6.59s-6.24,6.92-6.24,6.92Z" transform="translate(2.49 1.24)"/></g></svg>