<svg xmlns="http://www.w3.org/2000/svg" viewBox="0 0 2323 2000"><defs><style>.cls-1{fill:#a16ee7;opacity:0.5;}.cls-2{fill:#8b5dd0;}.cls-3{fill:#f2f2f2;}.cls-4{fill:#f47257;}.cls-5{fill:#31dae7;}.cls-6{fill:#e1dde7;}.cls-7{fill:#50bfa5;}.cls-8{fill:#3c8f7c;}.cls-9{fill:#f36b80;}.cls-10{fill:#e25a74;}.cls-11{fill:#5c407b;}.cls-12{fill:#fff;}.cls-13{fill:#e4c4ff;}.cls-14{fill:#ffb3c5;}.cls-15{fill:#f7a491;}.cls-16{fill:#ea94ad;}.cls-17{fill:#472a6a;}</style></defs><g id="_ÎÓÈ_2" data-name="—ÎÓÈ_2"><path class="cls-1" d="M496.32,2000c-30-820,862-750,677.93-1261.07C1016.94,302.14,155.32,506,19.32,0h2323V2000Z" transform="translate(-19.32)"/></g><g id="Layer_1" data-name="Layer 1"><path class="cls-2" d="M1822.42,1589.52c-27.85-23.29-42.13-44.84-44.71-48.93l97.94-61.87s-.13-.23-.42-.65c.08.12,8.24,12.12,24.55,25.07a152.9,152.9,0,0,0,71.94,31.35c34.26,5.45,69.6-6,93.22-16.51a253.68,253.68,0,0,0,44.14-25l86.85,16.78-16.33,75.13c-33.93,26-87.87,51.77-137.86,61.69C1958.79,1663,1879.59,1637.35,1822.42,1589.52Z" transform="translate(-19.32)"/><path class="cls-3" d="M1964.14,774.43l23-11.92L2010,774.69a3.56,3.56,0,0,0,5.19-3.72l-4.23-25.54,18.64-18a3.56,3.56,0,0,0-1.93-6.08l-25.6-3.87-11.33-23.28a3.56,3.56,0,0,0-6.38,0l-11.59,23.15-25.65,3.58a3.55,3.55,0,0,0-2,6.05l18.43,18.18-4.52,25.5A3.56,3.56,0,0,0,1964.14,774.43Z" transform="translate(-19.32)"/><rect class="cls-4" x="765.57" y="1242.16" width="1131.04" height="118.39"/><path class="cls-5" d="M1615.09,1661.2c-255-134.86-532.08-217.87-816.5-244.65l31.62-370.24c328.84,31,649.15,127,944.05,282.88Z" transform="translate(-19.32)"/><path class="cls-6" d="M823.66,1348.85q10.79-115.44,21.55-230.9c29.89,3.07,56.66-16.22,59.92-43.87,274.15,34.44,541.35,114.5,791.53,237.18-11.12,25.28,1.93,56.51,28.86,70.47q-48.86,104-97.72,208.07a47,47,0,0,0-65.22,23c-219.7-107.73-454.34-178-695.09-208.27C870.74,1377,851.17,1351.68,823.66,1348.85Z" transform="translate(-19.32)"/><path class="cls-7" d="M1412.21,1361.55c-23,66.21-93.88,99.93-159.64,79.72-65.71-20.37-108-89-93.17-157.75s87.69-109.74,161.63-86.87S1435.18,1295.47,1412.21,1361.55Z" transform="translate(-19.32)"/><path class="cls-8" d="M1252,1418q2.76-11.09,5.51-22.17a120.15,120.15,0,0,1-26.8-12.55,14.31,14.31,0,0,1-5.16-18.58l.4-.78a13.76,13.76,0,0,1,19.84-4.84,88.18,88.18,0,0,0,24.57,11.38c13.43,3.76,23.93,1.33,26.36-8,2.3-8.82-3.82-16.67-20.07-27.45-23.5-15.52-38.49-31.71-33.32-54.48,4.68-20.62,23.72-33,51.45-30.54q2.73-11.1,5.44-22.19,12.24,3.39,24.44,6.9-2.62,10.26-5.24,20.5a113.16,113.16,0,0,1,21.71,9.67c7,4.15,9.5,12.8,5.66,19.32h0c-4,6.74-13.1,8.67-20.18,4.27a80.26,80.26,0,0,0-20.71-9.13c-15.92-4.52-22.67.65-24.26,7.18-1.89,7.73,5.47,14.91,24.08,28.27,26.19,18.13,34,34.53,28.27,55.34-5.73,20.63-25.28,33.58-53.22,30.51q-3.06,11.87-6.14,23.74Q1263.35,1421.11,1252,1418Z" transform="translate(-19.32)"/><path class="cls-7" d="M1120.46,1281q-97.51-22.5-196.74-36.61l4.59-35.6q100.53,14.28,199.49,37.13Q1124.13,1263.41,1120.46,1281Z" transform="translate(-19.32)"/><path class="cls-7" d="M1627.35,1460.94q-90.75-44.37-184.5-80.75,5.93-16.85,11.86-33.7,95,36.87,187.08,81.89Z" transform="translate(-19.32)"/><path class="cls-5" d="M1734.27,1237.61c-263.16,55-513.74,165.15-738.56,324.72L813.48,1247.88c259.94-184.5,549.67-311.88,853.93-375.45Q1700.85,1055,1734.27,1237.61Z" transform="translate(-19.32)"/><path class="cls-3" d="M976.64,1492.57,864.33,1295.3c23.77-16.57,32.82-48.93,19.88-73,221.49-147,463.18-253.23,716-314.8,5.83,27.18,32.8,43.7,60.43,37.68Q1682.3,1059,1704,1172.76c-25.42,5.55-41.18,32.64-35.35,59.8-222,54.07-434.23,147.38-628.73,276.44C1027,1485,998.51,1477.32,976.64,1492.57Z" transform="translate(-19.32)"/><path class="cls-5" d="M1418.13,1128.4c19.8,67.25-13.81,139.15-73.57,164.9-59.82,25.59-129.11-2.13-156.37-66.18s3.79-143,71.08-171.85S1398.39,1061.26,1418.13,1128.4Z" transform="translate(-19.32)"/><path class="cls-3" d="M1331.21,1275.12q-4.12-10.57-8.24-21.13a104.47,104.47,0,0,1-26.76,7.07c-6.84.8-13-4.2-14.12-11.49,0-.29-.09-.59-.13-.88-1.2-8,4.31-15.68,12-16.46a76.57,76.57,0,0,0,24.45-6.58c12-5.55,18.41-14.16,15-23.11-3.21-8.47-12.08-10.82-30.06-9.06-26,2.61-46-.73-54.84-22.13-8-19.37-.8-41.29,21-57q-4.14-10.56-8.3-21.1,10.9-5.09,21.87-10,3.76,9.81,7.52,19.62a98.52,98.52,0,0,1,21.39-6.11,12.92,12.92,0,0,1,14.9,11.75h0a14.87,14.87,0,0,1-12.52,16.23,70.69,70.69,0,0,0-20.36,5.91c-14.26,6.53-16.37,14.94-13.92,21.14,2.89,7.35,12.32,8.37,33.47,7.16,29.4-2.24,44.29,5.81,51.6,26,7.22,20,0,42.77-22.34,58.1l8.64,22.78Q1341.32,1270.4,1331.21,1275.12Z" transform="translate(-19.32)"/><path class="cls-7" d="M1158,1249.85q-84.48,44.12-165.56,96l-16.38-31.22q82.14-52.58,167.88-97.34Q1151,1233.57,1158,1249.85Z" transform="translate(-19.32)"/><path class="cls-5" d="M1632.13,1070.6q-91.64,22.43-181,53.13l-10-34.33q90.58-31.1,183.56-53.87Q1628.42,1053.07,1632.13,1070.6Z" transform="translate(-19.32)"/><path class="cls-5" d="M1776.25,1467.65c-273.67-16.59-547.74,23.58-807.78,118.39l-107.4-352.66c300.66-109.62,617.55-156.06,934-136.88Q1785.65,1282.07,1776.25,1467.65Z" transform="translate(-19.32)"/><path class="cls-3" d="M965.81,1513.46q-32.68-110.36-65.38-220.7c27.42-9.74,43.94-38.65,36.7-65.36,253.81-83.49,518.15-122.24,783.09-114.77-.55,27.85,22.34,51,51.13,52.49q-5,115.86-10,231.74c-26.5-1.37-48.42,20.67-49,48.5-232.65-6.55-464.79,27.47-687.66,100.79C1017.5,1519.46,991,1504.51,965.81,1513.46Z" transform="translate(-19.32)"/><path class="cls-5" d="M1488.31,1278.11c4,70.34-46.11,131-111.35,140.07-65.27,8.91-127.5-36.29-139.6-105.51s37.07-137.4,110.49-147.47S1484.38,1207.89,1488.31,1278.11Z" transform="translate(-19.32)"/><path class="cls-3" d="M1368,1397.05q-1.62-11.33-3.25-22.64a107.68,107.68,0,0,1-28.17-.25,13.65,13.65,0,0,1-11.32-14.86c0-.3,0-.59.07-.89.68-8.09,7.92-14,15.69-12.76a79.07,79.07,0,0,0,25.77.12c13.19-2.19,21.54-8.82,20.29-18.38-1.21-9.05-9.46-13.68-27.69-16.74-26.34-4.36-45.46-12.91-49.22-36-3.41-20.87,8.83-40.17,34.12-49.59q-1.66-11.31-3.32-22.62,12-2,24-3.93l2.88,21a101.64,101.64,0,0,1,22.63-.24,13.57,13.57,0,0,1,12,15.32h0a14.47,14.47,0,0,1-16.19,12.39,72.86,72.86,0,0,0-21.56.32c-15.66,2.54-19.71,10.11-18.73,16.77,1.16,7.87,10.26,11.37,31.51,15.81,29.67,5.62,42.56,17.37,45.09,38.86,2.49,21.32-10,41.39-35.68,50.3l3.27,24.34Q1379.08,1395.17,1368,1397.05Z" transform="translate(-19.32)"/><path class="cls-7" d="M1202.16,1326.66q-94,20.29-186.48,49l-9-34.55q93.68-29.1,189.09-49.69Z" transform="translate(-19.32)"/><path class="cls-7" d="M1713.9,1278.93q-96-2.6-191.83,3.4-.93-17.92-1.87-35.86,97-6.08,194.51-3.45Z" transform="translate(-19.32)"/><rect class="cls-9" x="765.57" y="1242.16" width="1131.04" height="497.78"/><path class="cls-10" d="M1915.93,1612.85H1636.06c-12.41,0-22.47,10.53-22.47,23.53h0c0,13,10.06,23.53,22.47,23.53h-36.29c-12.41,0-22.47,10.53-22.47,23.52h0c0,13,10.06,23.53,22.47,23.53h6.28c-12.41,0-22.46,10.53-22.46,23.53a24.21,24.21,0,0,0,1.89,9.44h330.45Z" transform="translate(-19.32)"/><rect class="cls-10" x="807.25" y="1266.66" width="1029.61" height="38.65"/><rect class="cls-11" x="753.12" y="1424.61" width="540.64" height="309.15" rx="38"/><rect class="cls-3" x="787.88" y="1486.09" width="133.14" height="77.41"/><rect class="cls-3" x="1023.44" y="1466.48" width="236.09" height="14.45"/><rect class="cls-5" x="807.49" y="1631.61" width="434.5" height="17.85"/><rect class="cls-5" x="807.49" y="1673.64" width="434.5" height="17.85"/><rect class="cls-10" x="820.32" y="1369.25" width="480.07" height="12.83"/><circle class="cls-6" cx="1575.18" cy="1179.45" r="106.92"/><path class="cls-5" d="M1667.94,1127.91a89.71,89.71,0,1,1-125-21.9A89.71,89.71,0,0,1,1667.94,1127.91Z" transform="translate(-19.32)"/><path class="cls-3" d="M1604.86,1242.55l-3.91-14.46a72.38,72.38,0,0,1-19.1,1.68,9.1,9.1,0,0,1-8.64-9v-.58a9.1,9.1,0,0,1,9.66-9.22,53.22,53.22,0,0,0,17.28-1.62c8.67-2.34,13.7-7.3,12.06-13.39-1.57-5.78-7.43-8.12-19.72-8.87-17.77-1.08-30.93-5.68-34.92-20.45-3.63-13.39,3-26.44,18.39-34l-3.91-14.46,14.91-4,3.63,13.39a66.91,66.91,0,0,1,14.43-1.75,9.1,9.1,0,0,1,9.1,9h0a9.12,9.12,0,0,1-9.3,9.23,48.13,48.13,0,0,0-13.89,1.72c-9.89,2.67-11.93,7.8-10.78,12.06,1.36,5,7.55,6.78,21.8,8.15,19.84,1.49,29.41,7.89,33.12,21.58s-2.8,27.71-19.48,35.49l4.2,15.52Z" transform="translate(-19.32)"/><circle class="cls-3" cx="1695.37" cy="1521.63" r="106.92" transform="translate(-598.71 1644.48) rotate(-45)"/><path class="cls-5" d="M1768.81,1470.09a89.71,89.71,0,1,1-125-21.9A89.71,89.71,0,0,1,1768.81,1470.09Z" transform="translate(-19.32)"/><path class="cls-12" d="M1705.73,1584.73l-3.91-14.45a72.78,72.78,0,0,1-19.1,1.67,9.1,9.1,0,0,1-8.64-9v-.58a9.1,9.1,0,0,1,9.66-9.22,53.14,53.14,0,0,0,17.27-1.62c8.68-2.34,13.71-7.3,12.06-13.39-1.56-5.78-7.42-8.11-19.71-8.87-17.77-1.08-30.94-5.68-34.93-20.45-3.62-13.39,3-26.44,18.4-34l-3.91-14.46,14.91-4,3.62,13.39a66.91,66.91,0,0,1,14.43-1.75,9.09,9.09,0,0,1,9.1,9h0a9.11,9.11,0,0,1-9.3,9.23,48.42,48.42,0,0,0-13.88,1.72c-9.89,2.67-11.93,7.8-10.78,12.06,1.36,5,7.55,6.78,21.8,8.15,19.84,1.49,29.41,7.89,33.11,21.58s-2.79,27.71-19.47,35.49l4.19,15.52Z" transform="translate(-19.32)"/><circle class="cls-3" cx="1468.26" cy="1387.77" r="106.92"/><circle class="cls-5" cx="1487.58" cy="1387.77" r="89.72" transform="translate(-457.28 731.19) rotate(-24.18)"/><path class="cls-3" d="M1459.81,1445.38l5.1-14.08a72.64,72.64,0,0,1-16.6-9.6,9.12,9.12,0,0,1-1.91-12.32l.33-.48a9.1,9.1,0,0,1,13.2-2,52.75,52.75,0,0,0,15.07,8.6c8.45,3.07,15.41,1.9,17.56-4,2-5.63-1.41-10.91-11-18.59-13.92-11.09-22-22.42-16.84-36.8,4.73-13,17.63-19.93,34.61-17.3l5.11-14.08,14.52,5.27-4.72,13a67.69,67.69,0,0,1,12.81,6.86,9.1,9.1,0,0,1,2.28,12.59h0a9.1,9.1,0,0,1-12.91,2.22,48.54,48.54,0,0,0-12.35-6.57c-9.64-3.5-14.26-.47-15.76,3.68-1.77,4.89,2.29,9.88,13.16,19.19,15.38,12.62,19.54,23.35,14.71,36.69-4.79,13.19-18.21,21.07-36.33,17.86l-5.48,15.12Z" transform="translate(-19.32)"/><rect class="cls-10" x="1352.62" y="1449.43" width="484.23" height="259.52"/><path class="cls-10" d="M1613.59,1636.38h0c0,13,10.06,23.53,22.47,23.53h-36.29c-12.41,0-22.47,10.53-22.47,23.52h0c0,13,10.06,23.53,22.47,23.53h6.28a21.59,21.59,0,0,0-9,2h259.16v-96.09H1636.06C1623.65,1612.85,1613.59,1623.38,1613.59,1636.38Z" transform="translate(-19.32)"/><path class="cls-2" d="M389,1732.35h0a7.32,7.32,0,0,0,7,7.58H2151.68a7.32,7.32,0,0,0,7-7.58h0a7.33,7.33,0,0,0-7-7.59H396.07A7.33,7.33,0,0,0,389,1732.35Z" transform="translate(-19.32)"/><path class="cls-5" d="M1918.77,1754h-289a21,21,0,0,1-21-21h0a21,21,0,0,1,21-21h289a21,21,0,0,1,21,21h0A21,21,0,0,1,1918.77,1754Z" transform="translate(-19.32)"/><path class="cls-3" d="M1912.89,1712h-289a21,21,0,0,1-21-21h0a21,21,0,0,1,21-21h289a21,21,0,0,1,21,21h0A21,21,0,0,1,1912.89,1712Z" transform="translate(-19.32)"/><path class="cls-5" d="M1946.81,1670h-289a21,21,0,0,1-21-21h0a21,21,0,0,1,21-21h289a21,21,0,0,1,21,21h0A21,21,0,0,1,1946.81,1670Z" transform="translate(-19.32)"/><polygon class="cls-3" points="1559.88 760.76 1563.55 785.63 1524.18 795.97 1525.07 833.01 1496.87 845.57 1503.23 859.84 1540.94 843.05 1540.1 807.95 1581.06 797.2 1575.53 759.76 1559.88 760.76"/><path class="cls-9" d="M1206.84,682l7.59-18.83a98.59,98.59,0,0,1-22-13.79,12.35,12.35,0,0,1-2-16.78l.47-.63a12.32,12.32,0,0,1,18-2.08,72.16,72.16,0,0,0,20,12.37c11.3,4.55,20.79,3.3,24-4.62,3-7.53-1.39-14.85-14.06-25.71-18.33-15.68-28.81-31.43-21.06-50.65,7-17.44,24.83-26.17,47.71-21.78l7.59-18.83,19.42,7.82-7,17.45a91.37,91.37,0,0,1,17,9.89,12.34,12.34,0,0,1,2.49,17.17h0a12.34,12.34,0,0,1-17.6,2.38,65.92,65.92,0,0,0-16.42-9.48c-12.88-5.19-19.28-1.32-21.52,4.23-2.63,6.54,2.63,13.5,16.92,26.63,20.23,17.83,25.35,32.56,18.16,50.4-7.11,17.64-25.66,27.67-50,22.45l-8.15,20.22Z" transform="translate(-19.32)"/><path class="cls-5" d="M1242.74,882.93a7.9,7.9,0,0,1-1.36,9.94,77.48,77.48,0,0,1-24.63,14.86c-15.43,5.79-32.55,6.35-48-.66a57.42,57.42,0,0,1-24.7-22.46L1135,888a6,6,0,0,1-7.71-3.5l-.09-.24a6,6,0,0,1,3.5-7.71l7.48-2.81c-1.2-2.48-2.05-4-2.57-5.43a58,58,0,0,1-2.37-8.44l-7.71,2.89a6,6,0,0,1-7.71-3.5h0a6,6,0,0,1,3.5-7.71l9.35-3.51c-1.47-11.71.08-23.23,4.46-32.87,7.44-16.39,21.46-28.05,37.58-34.1a67.7,67.7,0,0,1,23.39-4.64,8.08,8.08,0,0,1,8.16,7.7v.14a8.09,8.09,0,0,1-7.8,8.45,58.16,58.16,0,0,0-18.19,3.86c-10.28,3.86-19.34,11-24.53,22a36,36,0,0,0-2.74,21.83l52.58-19.74a6,6,0,0,1,7.71,3.51h0a6,6,0,0,1-3.5,7.71l-54.92,20.61c.73,2.66,1.46,5.32,2.08,7,.78,2.1,1.57,4.2,2.86,6.92l55-20.66a6.13,6.13,0,0,1,7.88,3.58h0a6.1,6.1,0,0,1-3.58,7.87L1164.42,877a38,38,0,0,0,15.42,13.41c11.49,5,22.06,4.78,33.75.4a66.41,66.41,0,0,0,17.55-9.9,7.89,7.89,0,0,1,11.6,2Z" transform="translate(-19.32)"/><polygon class="cls-5" points="1079.86 695.51 1055.99 697.93 1047.85 659.95 1012.5 659.18 1001.76 631.76 987.88 637.19 1002.25 673.88 1035.74 674.6 1044.21 714.11 1080.13 710.47 1079.86 695.51"/><path class="cls-13" d="M1375.08,667.1l25.54,8.43s40.5-13.13,44.49-21.38,5.11-28.28,10.87-28.83,16.9,1.33,19.55,15c1.93,9.95-12.64,38.7-10.36,41.76,1.42,1.92,16,7.18,26.65,10.85A19.92,19.92,0,0,1,1505,709v0a11,11,0,0,1-6.84,11.78l-7.35,2.84,2.34,7.58a11,11,0,0,1-6.92,13.59l-5.69,1.91,1.82,4.62a11,11,0,0,1-7.07,14.48l-5,1.44.21,1.33a11,11,0,0,1-8,12.25l-4.93,1.29-68-22.45a48.46,48.46,0,0,1-17.24-10l-22.59-11.93a5.62,5.62,0,0,1-2.63-6.82l20.94-60.31A5.61,5.61,0,0,1,1375.08,667.1Z" transform="translate(-19.32)"/><path class="cls-3" d="M971,937.28l5.41-26.81,25.14-10.74A3.75,3.75,0,0,0,1002,893l-23.82-13.42-2.44-27.24a3.76,3.76,0,0,0-6.29-2.43l-20.13,18.51-26.65-6.09a3.76,3.76,0,0,0-4.26,5.22l11.38,24.87-14,23.47a3.76,3.76,0,0,0,3.66,5.66l27.16-3.14,18,20.59A3.75,3.75,0,0,0,971,937.28Z" transform="translate(-19.32)"/><path class="cls-14" d="M642.89,1595.65s-33.51,24.16-38.79,31.37c-7.6,10.38,56.78,29.8,49.76,17.65-1.62-2.8-6.25-12.21-6.46-13.14-1.08-5,12.58-18.28,12.58-18.28Z" transform="translate(-19.32)"/><path class="cls-5" d="M671.27,1665l-22.76-32.16s-14.21-3.3-28.79-19.71c0,0-13.11,5-21.17,15.85a370.49,370.49,0,0,0,38.71,34.9,107.55,107.55,0,0,0,33.14,18.82C689.64,1689.18,671.27,1665,671.27,1665Z" transform="translate(-19.32)"/><path class="cls-14" d="M362.8,1155.26s4.12,3.64,5.58,4.75c1.71,1.3,7.12,4.81,7.12,4.81s19.56,11.13,20.22,9.66.64-5.68-.33-6.8-3.79-2.25-4.75-3.36a3.59,3.59,0,0,1-.06-4.59c1.25-1.24,7.93,2.41,7.93,2.41s5.42,3,7.68,6.64c7.85,12.58,5.47,13.32,6.52,14.91,1.24,1.88,28.68,14.33,28.68,14.33s82,34.1,86.45,36h0c.6,3.8-1.43,7.29-2.47,10.65-2,11.72-5.45,12.5-8.11,23.8-12.59-6.37-99.68-54.35-108.54-59.34,0,0-13.26-2.27-21.55-4s-15.51-6.94-17.78-7.77a78.22,78.22,0,0,1-15.91-9.65c-7-5.44,2.05-3.39,2.05-3.39s14.77,7.83,15.15,6.59c.3-1-8-4.77-15.85-10.72-2-1.53-4-3-5.8-4.45-4.76-3.7-3.93-7.58,1.64-4.48a62.61,62.61,0,0,1,7.31,4.66c2.29,1.8,5,2.74,7.1,4,4.26,2.45,7.34,4.28,7.34,4s1.17-.39-.92-2.08c-2.52-2-8.78-5.19-12.25-8.45-2-1.85-6.31-5.48-6.31-5.48s-5.57-6.66-5.3-7.1c1.47-2.39,6.54,1.13,8.89,4,2.41,1.08,6.88,5,6.88,5s10.76,6,11.59,4.53c.35-.62-5.83-5.08-11.23-10.37-5-4.91-9.3-10.66-8.5-11.76C356.67,1150.37,362.8,1155.26,362.8,1155.26Z" transform="translate(-19.32)"/><path class="cls-10" d="M591.63,1347.3l5.31,26.22,133.27,121.22-95.4,96.54,25.76,26.33s140.9-103.46,146-117c7.82-20.87-101-159.14-101-159.14Z" transform="translate(-19.32)"/><path class="cls-14" d="M499.22,1664.37s-26.89,29.3-32.17,36.51c-7.6,10.38,49.18,25.71,42.15,13.55-1.62-2.8-6.25-12.21-6.45-13.13-1.08-5,12.58-18.28,12.58-18.28Z" transform="translate(-19.32)"/><path class="cls-5" d="M539.13,1713.5l-37-13.53s-14,6.36-35.32,1.15c0,0-7.52,10.57-8,24.07,0,0,70.14,9,89.66,3.36S539.13,1713.5,539.13,1713.5Z" transform="translate(-19.32)"/><path class="cls-9" d="M596.19,1359.45l6,165.41-118.26,145,32,17.52s130.81-112.27,145.17-143.54C670,1524.43,700,1349.09,700,1349.09Z" transform="translate(-19.32)"/><path class="cls-3" d="M703.69,1345.88c-10.83-24.47-9.58-199.85-51.77-240.93-14.84,2.51-25.42,3.92-27.9,4.57-2.2,18.06-4.62,84.36-6.11,145.12-1,40.48,0,82.93-5,105.3C609.86,1373.81,713.6,1368.22,703.69,1345.88Z" transform="translate(-19.32)"/><path class="cls-11" d="M589.51,1118.57c-11.85,2.7-20.57,4.6-36.09,27.52-14.86,22-47.85,74-47.85,74l-86.91-38.6-4.06,44s98.32,51.11,112.19,46.5,52.87-61.61,55.75-65.46c.68-.9-3.27,60.88-3.27,70.76s-18.85,95.83-18.85,95.83,47.82,11.77,57.16-9.62c28.62-65.55,6.65-254.1,6.65-254.1S598,1116.62,589.51,1118.57Z" transform="translate(-19.32)"/><path class="cls-14" d="M768,930.87c-3.65-3.06-5.24-10.38-5.85-15.1l-1.62-6.25c1.48-.61,30.46-4.73,39.2-4.95.86,2.76,1.28,5.1,1,6.59-1.3,7.14-10.43,53.52-10.43,53.52l-25,.5S770.79,937.68,768,930.87Z" transform="translate(-19.32)"/><path class="cls-11" d="M661.7,1115.22s17.13,48.73,31.22,41.71,93.27-87.74,94.05-91.64,6.26-103,6.26-103l-31.31-6.24-18,81.13s-57.94,55.39-69.68,60.85A21.78,21.78,0,0,0,661.7,1115.22Z" transform="translate(-19.32)"/><path class="cls-11" d="M707.93,1357.6c9.48,0,13-1.31,19.3-3.21,0,0-18.06-101.75-28.55-202.65-4.15-39.86-8-56.2-24.44-53.32-4.76.83-17.64,5.74-22.31,6.53,41.32,116.92,41.46,206.91,47.31,233C702.18,1351.05,704.73,1357.68,707.93,1357.6Z" transform="translate(-19.32)"/><path class="cls-15" d="M647.57,1087.29,651.9,1105s1,15.38-6.16,16.77c-8.6,1.66-21.4-11.22-21.4-11.22l-7.41-49.82Z" transform="translate(-19.32)"/><path class="cls-14" d="M647.57,1087.29,651.9,1105s1,15.38-6.16,16.77c-8.6,1.66-21.4-11.22-21.4-11.22l-7.41-49.82Z" transform="translate(-19.32)"/><path class="cls-16" d="M617,1060.91l30.56,26.38,3.23,13.2C639.12,1097.68,622.47,1084.82,617,1060.91Z" transform="translate(-19.32)"/><path class="cls-14" d="M647.67,1015.08c7.39,0,14,5.1,16.64,12.48a157.58,157.58,0,0,1,6.67,25.57c3.23,19.16-7.68,36.7-17.17,38.1s-32.11-4.89-37.11-32c-2.14-11.63-5-26.89,4.61-34.9C628.75,1018.06,639.17,1015.1,647.67,1015.08Z" transform="translate(-19.32)"/><path class="cls-9" d="M619.79,1079.88s-33.47-29.82-34.93-53.12,20.06-35.77,38.46-36.42a124.37,124.37,0,0,1,22.51,1.16c18.44,2.32,30.38,10.49,26.18,25.59-5.65,20.28-43.9,3.17-51.73,9.47-6.45,5.19,4,17.68-2.26,22.45-5.89,4.48-2.89,3-.94,11.48A151,151,0,0,1,619.79,1079.88Z" transform="translate(-19.32)"/><path class="cls-14" d="M606.89,1052.87c.82,5.58,4.24,9.7,7.62,9.2s5.45-5.43,4.62-11-4.24-9.7-7.63-9.21S606.06,1047.28,606.89,1052.87Z" transform="translate(-19.32)"/><path class="cls-16" d="M769.71,909.45a40,40,0,0,1,10.81,10.22s14.11-9,13.62-11.92c-.66-3.8-15.09,3.26-15.09,3.26Z" transform="translate(-19.32)"/><path class="cls-9" d="M405.84,722.09l381,196.19c20.5,10.56,46.43,1.06,57.9-21.22l97.3-189c11.48-22.28,4.15-48.9-16.35-59.46l-381-196.19c-20.51-10.56-46.43-1.06-57.9,21.22l-97.3,189C378,684.91,385.33,711.54,405.84,722.09Z" transform="translate(-19.32)"/><rect class="cls-11" x="601.83" y="490.89" width="64.48" height="512.09" transform="translate(-339.59 968.74) rotate(-62.76)"/><rect class="cls-3" x="516.54" y="501.81" width="112.9" height="62.63" transform="translate(288.93 -203.39) rotate(27.29)"/><path class="cls-14" d="M769.6,909.15c-.66-1.79-2-4.29-1.32-5.28,4.06-6.2-.32-13-3.28-7.67-1.71,3.06-4.71,9.82-4.46,13.32.18,2.54,2.76,12.24,2.76,12.24S773.36,919.31,769.6,909.15Z" transform="translate(-19.32)"/><path class="cls-14" d="M1917.44,1562s-2.34,29.21-.44,38.71c1,5.08,6.69,15.54,4.09,20.33s-5.58,6-5.58,6l-67.46,1.07c-3.68.06-1.25-2.26,1.71-4.41,4.85-3.5,8.77-5.82,24.26-13.19,1-.48,4.69-2.78,6-3.58a46.69,46.69,0,0,0,9.65-8.38c4.84-5.31,5.26-31,5.26-31Z" transform="translate(-19.32)"/><path class="cls-17" d="M1864.71,1173.74s-29-14.3-23.42,16.79,48.07,380.74,48.07,380.74l39.79,2.2s5.09-116.57,4-133.31-7.71-42.64-7.71-42.64L1922,1294.11l-37.55-127.69Z" transform="translate(-19.32)"/><path class="cls-11" d="M1880,1606.88c17.85,4.51,31,1.45,38.41-1.48,1.91,5.3,4.43,12,3.09,15.79-1.64,4.7-3.77,6.79-5.83,6.84-16.3.42-59.9,0-72.32.13a2,2,0,0,1-1.58-3.28C1844.89,1621.26,1878.71,1607.68,1880,1606.88Z" transform="translate(-19.32)"/><path class="cls-14" d="M1841.29,963.6s-24.52-47.17-28.32-64.49S1796,794.58,1797.1,789s21.94-19.13,19.37-23.9-22.41-4.79-27-4.38-13.67,3.06-17.58,6.28,4.39,107.74,6.87,130.24,32.94,91.8,32.94,91.8Z" transform="translate(-19.32)"/><path class="cls-14" d="M2032.32,1331.27s20.22-21.21,24.73-29.78c2.41-4.59,4.59-16.29,9.63-18.36s8.1-1.13,8.1-1.13l53.06,41.67c2.89,2.27-.46,2.55-4.11,2.35-6-.33-10.48-1-27.15-5-1.09-.26-5.39-.79-6.93-1a46.45,46.45,0,0,0-12.77.43c-7.11,1.07-23.64,20.78-23.64,20.78Z" transform="translate(-19.32)"/><path class="cls-11" d="M2089.64,1320c-11-14.74-23.19-20.67-30.76-23,1.86-5.31,3.9-12.27,7.36-14.4,4.23-2.62,7.15-2.08,8.78-.82,12.92,9.94,46.74,37.14,56.49,44.84a2,2,0,0,1-.84,3.55C2126,1331,2091.18,1320.19,2089.64,1320Z" transform="translate(-19.32)"/><path class="cls-17" d="M2032.8,949.24c-12.59-26.41-40.48-40.94-67.5-33.91-9.69-13.11-24.68-22.29-40.28-24.5-30.76-4.36-70.47,10.57-66.41,42.69-9.73,22.46-7.34,53.42,12.07,68.59-3.56,29.53,26,55.73,61.09,52.19,14.1,19.46,38.61,30.88,61.53,26.43,5.5-1.06,13.86-3.07,15.3-2.82-1.8-.2,40,27.15,68.77-21.55C2106.76,1006.66,2077.82,951.1,2032.8,949.24Z" transform="translate(-19.32)"/><path class="cls-11" d="M1853,1185s65-28.91,66-25.62c8.16,26.26,33.53,17.79,48.59,64,6.3,19.37,12.78,148.21,12.78,148.21s25.64-21.28,62.29-58.46c2.81-2.86,30.36,23.34,30.36,23.34-72.74,98.29-104.12,103.41-116.26,97.91-25.34-11.49-78.8-172.16-78.71-172.14C1871.72,1249.78,1853,1185,1853,1185Z" transform="translate(-19.32)"/><path class="cls-14" d="M1960.85,1003.49s94-.12,114.13-1.28c18.22-1.05,90.46.79,93.29.46s21.5-31.95,24.6-28.56-10.39,15.69-6.22,18.87,49-4,48.42-.63c-1.11,6.2-27.27,5.41-27.24,8.4s27.37-1.68,29.23,3.29-26.31,2-27.44,4.25,26.13,6.28,23.34,10.9c-1.51,2.51-24.14-4.19-24-.77s16.62,11.21,14.59,13.94-12.95-8.37-22.53-8.51-16.44-5.13-31.73-.94c-7.55,2.07-65.19,9.12-113.9,13.28-49.92,4.27-90.85,5.62-90.85,5.62Z" transform="translate(-19.32)"/><path class="cls-3" d="M1821.47,1070c-1.25-15.1,1.72-26.72,2.4-31.73-4.57-15.67-14.28-49.12-17.77-55.69,0,0,16.37-31.46,33.12-31.24,0,0,17.11,38.57,30.34,45.47.19,0,4.68,2,6.65,2,12.78-.09,57.41-1.44,65.74-1.59l-4.69,63.32c-32.34,63.4-23.58,96.67-11.28,109,5.79,5.78-80.71,29.28-84.69,21.08C1836.59,1180.86,1824,1100.46,1821.47,1070Z" transform="translate(-19.32)"/><path class="cls-3" d="M1919.27,999.54c8.23-3.93,67.81-2,67.81-2s8.33,41.49,1.6,51.46c0,0-53.27,7.93-51.76,12.3Z" transform="translate(-19.32)"/><path class="cls-14" d="M1903.65,972.88s-1,22.63,0,32-9.67,31.52-29.65,31.91-2.93-21.2-1.18-30.48,3.85-45.58,3.85-45.58Z" transform="translate(-19.32)"/><path class="cls-16" d="M1876.69,960.78s-.49,8.43-1.19,18.2c6.3,7.52,16,11.36,27.76,6.78.12-7,.39-12.88.39-12.88Z" transform="translate(-19.32)"/><path class="cls-14" d="M1905.31,905.46A33.2,33.2,0,0,1,1923,920.15c6.34,11.32,9,43.52-15.37,56.79s-41.11-9-40-29.57S1875,899.73,1905.31,905.46Z" transform="translate(-19.32)"/><path class="cls-14" d="M1862.69,940.57c1.66,5.09,5.4,8.44,8.36,7.48s4-5.87,2.38-11-5.39-8.44-8.36-7.47S1861,935.48,1862.69,940.57Z" transform="translate(-19.32)"/><path class="cls-17" d="M1901.91,904.55s12.38,33.86,25,37.68,11.34,20.34,11.34,20.34,2.34-38.19-9.12-47.78S1901.91,904.55,1901.91,904.55Z" transform="translate(-19.32)"/><path class="cls-14" d="M1921.37,948.71c-2.06,5.22-.87,10.58,2.66,12s8-1.71,10.12-6.93.87-10.58-2.66-12S1923.43,943.49,1921.37,948.71Z" transform="translate(-19.32)"/><path class="cls-16" d="M1768.4,775s27.54,1.2,30.77,1.2,12.65-9.73,12.65-9.73Z" transform="translate(-19.32)"/><circle class="cls-3" cx="1771.02" cy="669.29" r="106.92" transform="translate(-117.95 371.16) rotate(-11.64)"/><path class="cls-5" d="M1844.46,617.75a89.72,89.72,0,1,1-125-21.9A89.71,89.71,0,0,1,1844.46,617.75Z" transform="translate(-19.32)"/><path class="cls-3" d="M1781.38,732.4l-3.91-14.46a73.24,73.24,0,0,1-19.1,1.68,9.12,9.12,0,0,1-8.64-9v-.58a9.1,9.1,0,0,1,9.65-9.22,52.9,52.9,0,0,0,17.28-1.62c8.68-2.34,13.71-7.3,12.06-13.39-1.56-5.78-7.42-8.11-19.71-8.87-17.77-1.08-30.94-5.68-34.93-20.45-3.62-13.39,3-26.44,18.4-34L1748.55,608l14.92-4,3.62,13.39a66.91,66.91,0,0,1,14.43-1.75,9.09,9.09,0,0,1,9.1,9h0a9.1,9.1,0,0,1-9.3,9.23,48.42,48.42,0,0,0-13.88,1.72c-9.89,2.67-11.93,7.8-10.78,12.06,1.36,5,7.55,6.78,21.8,8.15,19.84,1.49,29.41,7.89,33.11,21.59,3.66,13.54-2.8,27.7-19.47,35.48l4.19,15.52Z" transform="translate(-19.32)"/><path class="cls-14" d="M1799.17,776.21,1810.54,766s-5.36-6.41-3.13-7.64c3.62-2,9.83,5.74,9.28,7.62s-7.22,8-7.22,8Z" transform="translate(-19.32)"/></g></svg>