<?xml version="1.0" encoding="utf-8"?>
<!-- Generator: Adobe Illustrator 24.2.3, SVG Export Plug-In . SVG Version: 6.00 Build 0)  -->
<svg version="1.1" id="Camada_1" xmlns="http://www.w3.org/2000/svg" xmlns:xlink="http://www.w3.org/1999/xlink" x="0px" y="0px"
	 viewBox="0 0 2323 2000" style="enable-background:new 0 0 2323 2000;" xml:space="preserve">
<style type="text/css">
	.st0{opacity:0.5;fill:#9DEEFF;enable-background:new    ;}
	.st1{fill:#8B5DD0;}
	.st2{fill:#F2F2F2;}
	.st3{fill:#F47257;}
	.st4{fill:#31DAE7;}
	.st5{fill:#E1DDE7;}
	.st6{fill:#50BFA5;}
	.st7{fill:#3C8F7C;}
	.st8{fill:#F36B80;}
	.st9{fill:#E25A74;}
	.st10{fill:#5C407B;}
	.st11{fill:#FFFFFF;}
	.st12{fill:#E4C4FF;}
	.st13{fill:#FFB3C5;}
	.st14{fill:#F7A491;}
	.st15{fill:#EA94AD;}
	.st16{fill:#472A6A;}
</style>
<g id="_ÎÓÈ_2">
	<path class="st0" d="M477,2000c-30-820,862-750,677.9-1261.1C997.6,302.1,368.2,506,232.2,0H2323v2000H477z"/>
</g>
<g id="Layer_1">
	<path class="st1" d="M1861.8,1547.1c-24.1-20.1-36.4-38.8-38.7-42.3l84.7-53.5c0,0-0.1-0.2-0.4-0.6c0.1,0.1,7.1,10.5,21.2,21.7
		c18,14.3,39.4,23.6,62.2,27.1c29.6,4.7,60.2-5.2,80.6-14.3c13.4-5.9,26.2-13.1,38.1-21.6l75.1,14.5l-14.1,64.9
		c-29.3,22.5-76,44.8-119.2,53.3C1979.7,1610.6,1911.3,1588.4,1861.8,1547.1z"/>
	<path class="st2" d="M1984.3,842.5l19.9-10.3l19.8,10.5c1.5,0.8,3.4,0.2,4.2-1.3c0.3-0.6,0.4-1.3,0.3-2l-3.7-22.1l16.1-15.6
		c1.2-1.2,1.3-3.1,0.1-4.3l0,0c-0.5-0.5-1.1-0.8-1.8-0.9l-22.1-3.3l-9.8-20.1c-0.7-1.5-2.5-2.2-4-1.5c0,0-0.1,0-0.1,0.1l0,0
		c-0.6,0.3-1.1,0.8-1.4,1.4l-10,20l-22.2,3.1c-1.7,0.2-2.9,1.8-2.6,3.5c0.1,0.7,0.4,1.3,0.9,1.8l15.9,15.8l-3.9,22
		c-0.3,1.7,0.8,3.2,2.5,3.5c0,0,0,0,0,0l0,0C1983.1,842.9,1983.8,842.8,1984.3,842.5z"/>
	<rect x="965" y="1246.8" class="st3" width="977.6" height="102.3"/>
	<path class="st4" d="M1682.6,1609c-220.4-116.6-459.9-188.3-705.8-211.5l27.3-320c284.2,26.8,561.1,109.8,816,244.5L1682.6,1609z"
		/>
	<path class="st5" d="M998.6,1339.1c6.2-66.5,12.4-133,18.6-199.6c25.8,2.7,49-14,51.8-37.9c237,29.8,467.9,99,684.2,205
		c-9.6,21.8,1.7,48.8,24.9,60.9l-84.5,179.8c-19.8-10.5-44.4-3-54.9,16.9c-0.5,1-1,2-1.4,3c-188.9-92.8-392-153.6-600.8-180
		C1039.3,1363.4,1022.3,1341.5,998.6,1339.1z"/>
	<path class="st6" d="M1507.3,1350c-19.9,57.2-81.2,86.4-138,68.9s-93.3-76.9-80.5-136.3s75.8-94.9,139.7-75.1
		S1527.1,1292.9,1507.3,1350z"/>
	<path class="st7" d="M1368.8,1398.8c1.6-6.4,3.2-12.8,4.8-19.2c-8.1-2.6-15.9-6.3-23.2-10.8c-5.4-3.4-7.3-10.4-4.5-16.1l0.3-0.7
		c3.1-5.8,10.3-7.9,16.1-4.8c0.3,0.2,0.7,0.4,1,0.6c6.5,4.4,13.7,7.7,21.2,9.8c11.6,3.2,20.7,1.1,22.8-6.9c2-7.6-3.3-14.4-17.3-23.7
		c-20.3-13.4-33.3-27.4-28.8-47.1c4-17.8,20.5-28.5,44.5-26.4c1.6-6.4,3.1-12.8,4.7-19.2c7.1,1.9,14.1,3.9,21.1,6
		c-1.5,5.9-3,11.8-4.5,17.7c6.5,2.1,12.8,4.9,18.8,8.4c6,3.6,8.2,11.1,4.9,16.7l0,0c-3.4,5.8-11.3,7.5-17.4,3.7
		c-5.6-3.5-11.6-6.1-17.9-7.9c-13.8-3.9-19.6,0.6-21,6.2c-1.6,6.7,4.7,12.9,20.8,24.4c22.6,15.7,29.4,29.8,24.4,47.8
		c-5,17.8-21.8,29-46,26.4l-5.3,20.5C1381.8,1402.5,1375.3,1400.6,1368.8,1398.8z"/>
	<path class="st6" d="M1255.1,1280.4c-56.2-13-112.9-23.5-170-31.6l4-30.8c57.9,8.2,115.4,18.9,172.4,32.1
		C1259.4,1260.2,1257.2,1270.3,1255.1,1280.4z"/>
	<path class="st6" d="M1693.2,1435.9c-52.3-25.6-105.5-48.8-159.5-69.8c3.4-9.7,6.8-19.4,10.2-29.1c54.8,21.2,108.7,44.8,161.7,70.8
		L1693.2,1435.9z"/>
	<path class="st4" d="M1785.7,1242.9c-227.5,47.5-444,142.7-638.4,280.7l-157.5-271.8c224.7-159.5,475.1-269.5,738.1-324.5
		C1747.1,1032.5,1766.4,1137.7,1785.7,1242.9z"/>
	<path class="st2" d="M1130.8,1463.2l-97.1-170.5c20.5-14.3,28.4-42.3,17.2-63.1c191.4-127.1,400.3-218.9,618.9-272.1
		c5,23.5,28.3,37.8,52.2,32.6c12.5,65.6,25,131.2,37.5,196.7c-22,4.8-35.6,28.2-30.6,51.7c-191.9,46.7-375.3,127.4-543.4,239
		C1174.3,1456.7,1149.7,1450.1,1130.8,1463.2z"/>
	<path class="st4" d="M1512.4,1148.5c17.1,58.1-11.9,120.3-63.6,142.5s-111.6-1.8-135.2-57.2s3.3-123.6,61.4-148.5
		S1495.3,1090.5,1512.4,1148.5z"/>
	<path class="st2" d="M1437.3,1275.3l-7.1-18.3c-7.4,3.1-15.2,5.1-23.1,6.1c-5.9,0.7-11.2-3.6-12.2-9.9c0-0.3-0.1-0.5-0.1-0.8
		c-1-6.9,3.7-13.6,10.4-14.2c7.3-0.7,14.5-2.6,21.1-5.7c10.4-4.8,15.9-12.2,13-20c-2.8-7.3-10.4-9.3-26-7.8
		c-22.5,2.3-39.8-0.6-47.4-19.1c-6.9-16.7-0.7-35.7,18.2-49.3c-2.4-6.1-4.8-12.2-7.2-18.2c6.3-2.9,12.6-5.8,18.9-8.7
		c2.2,5.7,4.3,11.3,6.5,17c5.9-2.4,12.1-4.2,18.5-5.3c6.1-1,11.8,3.2,12.8,9.3l0,0c0,0.3,0.1,0.6,0.1,0.9l0,0
		c0.7,6.8-4.1,13-10.8,14c-6.1,0.8-12,2.5-17.6,5.1c-12.3,5.7-14.2,12.9-12,18.3c2.5,6.3,10.7,7.2,28.9,6.2
		c25.4-1.9,38.3,5,44.6,22.5c6.2,17.3,0,37-19.3,50.2l7.5,19.7C1448.9,1269.9,1443.1,1272.6,1437.3,1275.3z"/>
	<path class="st6" d="M1287.6,1253.5c-48.7,25.4-96.4,53.1-143.1,83l-14.2-27c47.3-30.3,95.7-58.3,145.1-84.1
		C1279.5,1234.7,1283.5,1244.1,1287.6,1253.5z"/>
	<path class="st4" d="M1697.4,1098.5c-52.8,12.9-105,28.2-156.4,45.9l-8.6-29.7c52.2-17.9,105.1-33.4,158.7-46.6
		C1693.1,1078.3,1695.2,1088.4,1697.4,1098.5z"/>
	<path class="st4" d="M1821.9,1441.7c-236.6-14.3-473.4,20.4-698.2,102.3l-92.8-304.8c259.9-94.8,533.8-134.9,807.3-118.3
		C1832.8,1227.9,1827.4,1334.8,1821.9,1441.7z"/>
	<path class="st2" d="M1121.4,1481.3c-18.8-63.6-37.7-127.2-56.5-190.8c23.7-8.4,38-33.4,31.7-56.5
		c219.4-72.2,447.9-105.7,676.9-99.2c-0.5,24.1,19.3,44.1,44.2,45.4l-8.6,200.3c-22.9-1.2-41.8,17.9-42.3,41.9
		c-201.7-5.6-402.8,23.9-594.4,87.1C1166.1,1486.5,1143.2,1473.6,1121.4,1481.3z"/>
	<path class="st4" d="M1573.1,1277.9c3.4,60.8-39.9,113.2-96.2,121.1s-110.2-31.4-120.7-91.2s32-118.8,95.5-127.5
		S1569.7,1217.2,1573.1,1277.9z"/>
	<path class="st2" d="M1469.1,1380.7c-0.9-6.5-1.9-13.1-2.8-19.6c-8.1,1-16.3,0.9-24.3-0.2c-6.1-1-10.4-6.6-9.8-12.8
		c0-0.3,0-0.5,0.1-0.8c0.5-6.6,6.3-11.6,12.9-11.1c0.2,0,0.5,0,0.7,0.1c7.4,1.3,14.9,1.3,22.3,0.1c11.4-1.9,18.6-7.6,17.5-15.9
		c-1-7.8-8.2-11.8-23.9-14.5c-22.8-3.8-39.3-11.2-42.5-31.1c-2.9-18,7.6-34.7,29.5-42.9c-0.9-6.5-1.9-13-2.9-19.6
		c6.9-1.2,13.8-2.3,20.8-3.4l2.5,18.2c6.5-0.8,13.1-0.9,19.6-0.2c6.4,0.7,11.1,6.5,10.4,12.9v0.3l0,0c-0.9,6.8-7.2,11.6-14,10.7
		c-6.2-0.8-12.5-0.7-18.6,0.3c-13.5,2.2-17,8.7-16.2,14.5c1,6.8,8.9,9.8,27.2,13.7c25.6,4.9,36.8,15,39,33.6s-8.6,35.8-30.8,43.5
		l2.8,21C1481.9,1378.6,1475.4,1379.6,1469.1,1380.7z"/>
	<path class="st6" d="M1325.7,1319.9c-54.2,11.7-107.9,25.8-161.2,42.4l-7.8-29.9c54-16.8,108.5-31.1,163.4-43L1325.7,1319.9z"/>
	<path class="st6" d="M1768.1,1278.6c-55.3-1.5-110.6-0.5-165.8,2.9l-1.6-31c55.9-3.5,111.9-4.5,168.1-3L1768.1,1278.6z"/>
	<rect x="965" y="1246.8" class="st8" width="977.6" height="430.3"/>
	<path class="st9" d="M1942.7,1567.2h-241.9c-10.7,0-19.4,9.1-19.4,20.3l0,0c0,11.2,8.7,20.3,19.4,20.3h-31.4
		c-10.7,0-19.4,9.1-19.4,20.3l0,0c0,11.2,8.7,20.3,19.4,20.3h5.4c-10.7,0-19.4,9.1-19.4,20.3c0,2.8,0.5,5.6,1.6,8.2h285.6V1567.2z"
		/>
	<rect x="1001.1" y="1268" class="st9" width="890" height="33.4"/>
	<path class="st10" d="M987.1,1404.5h401.6c18.1,0,32.8,14.7,32.8,32.8v201.5c0,18.1-14.7,32.8-32.8,32.8H987.1
		c-18.1,0-32.8-14.7-32.8-32.8v-201.5C954.3,1419.2,969,1404.5,987.1,1404.5z"/>
	<rect x="984.3" y="1457.7" class="st2" width="115.1" height="66.9"/>
	<rect x="1187.9" y="1440.7" class="st2" width="204.1" height="12.5"/>
	<rect x="1001.3" y="1583.4" class="st4" width="375.6" height="15.4"/>
	<rect x="1001.3" y="1619.8" class="st4" width="375.6" height="15.4"/>
	<rect x="1012.4" y="1356.7" class="st9" width="415" height="11.1"/>
	<circle class="st5" cx="1664.8" cy="1192.6" r="92.4"/>
	<path class="st4" d="M1728.3,1148.1c24.6,35,16.1,83.4-18.9,108s-83.4,16.1-108-18.9c-24.6-35-16.1-83.4,18.9-108c0,0,0,0,0,0l0,0
		C1655.4,1104.6,1703.7,1113,1728.3,1148.1z"/>
	<path class="st2" d="M1673.8,1247.2l-3.4-12.5c-5.4,1.2-11,1.7-16.5,1.4c-4.2-0.2-7.4-3.6-7.5-7.8v-0.5c-0.1-4.3,3.4-7.9,7.7-8
		c0,0,0,0,0,0h0.6c5,0.4,10.1-0.1,14.9-1.4c7.5-2,11.8-6.3,10.4-11.6c-1.4-5-6.4-7-17.1-7.7c-15.3-0.9-26.7-4.9-30.2-17.7
		c-3.1-11.6,2.6-22.8,15.9-29.4l-3.4-12.5l12.9-3.5l3.1,11.6c4.1-1,8.3-1.5,12.5-1.5c4.3,0,7.8,3.5,7.9,7.8l0,0
		c0.1,4.4-3.4,7.9-7.8,8c0,0,0,0,0,0h-0.3c-4.1-0.1-8.1,0.4-12,1.5c-8.6,2.3-10.3,6.8-9.3,10.4c1.2,4.3,6.5,5.9,18.8,7
		c17.2,1.3,25.4,6.8,28.6,18.7s-2.4,24-16.8,30.7l3.6,13.4L1673.8,1247.2z"/>
	<circle class="st2" cx="1752" cy="1488.4" r="92.4"/>
	<path class="st4" d="M1815.5,1443.8c24.6,35,16.2,83.4-18.9,108c-35,24.6-83.4,16.2-108-18.9c-24.6-35-16.2-83.4,18.9-108
		c0,0,0,0,0,0l0,0C1742.5,1400.3,1790.9,1408.8,1815.5,1443.8z"/>
	<path class="st11" d="M1761,1542.9l-3.4-12.5c-5.4,1.2-11,1.7-16.5,1.4c-4.2-0.2-7.4-3.6-7.5-7.8v-0.5c-0.1-4.3,3.4-7.9,7.7-8
		c0,0,0,0,0,0h0.6c5,0.4,10.1-0.1,14.9-1.4c7.5-2,11.8-6.3,10.4-11.6c-1.3-5-6.4-7-17-7.7c-15.4-0.9-26.7-4.9-30.2-17.7
		c-3.1-11.6,2.6-22.9,15.9-29.4l-3.4-12.5l12.9-3.5l3.1,11.6c4.1-1,8.3-1.5,12.5-1.5c4.3,0,7.8,3.5,7.9,7.8l0,0
		c0.1,4.3-3.4,7.9-7.7,8c0,0,0,0,0,0h-0.3c-4.1-0.1-8.1,0.4-12,1.5c-8.5,2.3-10.3,6.7-9.3,10.4c1.2,4.3,6.5,5.9,18.8,7
		c17.2,1.3,25.4,6.8,28.6,18.7s-2.4,24-16.8,30.7l3.6,13.4L1761,1542.9z"/>
	<circle class="st2" cx="1572.4" cy="1372.7" r="92.4"/>
	<circle class="st4" cx="1572.4" cy="1372.8" r="77.6"/>
	<path class="st2" d="M1548.4,1422.5l4.4-12.2c-5.1-2.1-10-4.9-14.3-8.3c-3.3-2.6-4-7.2-1.7-10.6l0.3-0.4c2.4-3.6,7.3-4.5,10.9-2.1
		c0,0,0,0,0,0l0,0c0.2,0.1,0.3,0.2,0.5,0.3c3.9,3.2,8.3,5.7,13,7.4c7.3,2.7,13.3,1.6,15.2-3.5c1.7-4.9-1.2-9.4-9.5-16.1
		c-12-9.6-19-19.4-14.6-31.8c4.1-11.2,15.2-17.2,29.9-15l4.4-12.2l12.6,4.6l-4.1,11.2c3.9,1.6,7.6,3.6,11.1,5.9
		c3.5,2.5,4.4,7.3,2,10.9l0,0c-2.4,3.6-7.3,4.5-10.9,2.1l0,0l-0.2-0.2c-3.3-2.4-6.9-4.3-10.7-5.7c-8.3-3-12.3-0.4-13.6,3.2
		c-1.5,4.2,2,8.5,11.4,16.6c13.3,10.9,16.9,20.2,12.7,31.7s-15.7,18.2-31.4,15.4l-4.8,13.1L1548.4,1422.5z"/>
	<rect x="1472.5" y="1426" class="st9" width="418.6" height="224.3"/>
	<path class="st9" d="M1681.3,1587.6L1681.3,1587.6c0,11.2,8.7,20.3,19.4,20.3h-31.4c-10.7,0-19.4,9.1-19.4,20.3l0,0
		c0,11.2,8.7,20.3,19.4,20.3h5.4c-2.7,0-5.3,0.6-7.8,1.7h224v-83.1h-190.3C1690,1567.2,1681.3,1576.3,1681.3,1587.6z"/>
	<path class="st1" d="M622.9,1670.5L622.9,1670.5c-0.1,3.5,2.5,6.4,6,6.6h1517.6c3.5-0.1,6.2-3.1,6.1-6.6l0,0
		c0.1-3.5-2.6-6.4-6.1-6.6H629C625.5,1664.1,622.8,1667,622.9,1670.5L622.9,1670.5z"/>
	<path class="st4" d="M1945.1,1689.2h-249.8c-10,0-18.1-8.1-18.2-18.2l0,0c0-10,8.1-18.1,18.1-18.2l0,0h249.8
		c10,0,18.1,8.1,18.2,18.2l0,0C1963.3,1681.1,1955.1,1689.2,1945.1,1689.2z"/>
	<path class="st2" d="M1940,1652.9h-249.8c-10,0-18.2-8.1-18.2-18.2l0,0c0-10,8.1-18.2,18.2-18.2c0,0,0,0,0,0H1940
		c10,0,18.2,8.1,18.2,18.2c0,0,0,0,0,0l0,0C1958.2,1644.8,1950,1652.9,1940,1652.9z"/>
	<path class="st4" d="M1969.4,1616.6h-249.8c-10,0-18.1-8.1-18.2-18.2l0,0c0-10,8.1-18.1,18.2-18.2h249.8c10,0,18.1,8.1,18.2,18.2
		l0,0C1987.5,1608.5,1979.4,1616.6,1969.4,1616.6L1969.4,1616.6L1969.4,1616.6z"/>
	<polygon class="st2" points="1651.6,830.7 1654.8,852.2 1620.8,861.2 1621.5,893.2 1597.2,904 1602.7,916.4 1635.2,901.8 
		1634.5,871.5 1669.9,862.2 1665.1,829.9 	"/>
	<path class="st8" d="M1329.8,762.7l6.6-16.3c-6.8-3.1-13.2-7.1-19-11.9c-4.3-3.6-5-9.9-1.7-14.5l0.4-0.5c3.5-4.8,10.1-5.8,14.9-2.3
		c0,0,0,0,0,0l0,0c0.2,0.2,0.5,0.3,0.7,0.5c5.1,4.5,11,8.1,17.3,10.7c9.8,3.9,18,2.8,20.8-4c2.6-6.5-1.2-12.8-12.2-22.2
		c-15.8-13.6-24.9-27.2-18.2-43.8c6-15.1,21.5-22.6,41.2-18.8l6.5-16.3l16.8,6.8l-6,15.1c5.2,2.3,10.1,5.2,14.7,8.5
		c4.7,3.5,5.6,10.1,2.2,14.8l0,0c-3.5,4.7-10.2,5.8-14.9,2.3l0,0l-0.3-0.2c-4.3-3.4-9.1-6.2-14.2-8.2c-11.1-4.5-16.7-1.1-18.6,3.7
		c-2.3,5.7,2.3,11.7,14.6,23c17.5,15.4,21.9,28.2,15.7,43.6c-6.2,15.2-22.2,23.9-43.2,19.4l-7,17.5L1329.8,762.7z"/>
	<path class="st4" d="M1360.8,936.3c1.7,2.8,1.2,6.4-1.2,8.6c-6.2,5.6-13.5,9.9-21.3,12.8c-13.3,5-28.1,5.5-41.5-0.6
		c-8.9-4.2-16.3-11-21.3-19.4l-7.8,2.9c-2.7,1-5.6-0.3-6.7-3l-0.1-0.2c-1-2.7,0.3-5.6,3-6.7l6.5-2.4c-1-2.1-1.8-3.5-2.2-4.7
		c-0.9-2.4-1.5-4.8-2-7.3l-6.7,2.5c-2.7,1-5.6-0.3-6.7-3l0,0c-1-2.7,0.3-5.6,3-6.7l8.1-3c-1.3-9.6,0-19.5,3.8-28.4
		c6.4-14.2,18.6-24.2,32.5-29.5c6.4-2.5,13.3-3.9,20.2-4c3.8,0,6.9,2.9,7.1,6.7v0.1c0.2,3.9-2.8,7.1-6.7,7.3h-0.1
		c-5.4,0.3-10.7,1.4-15.7,3.3c-8.9,3.3-16.7,9.5-21.2,19c-2.7,5.9-3.6,12.5-2.4,18.9l45.5-17.1c2.7-1,5.6,0.3,6.7,3c0,0,0,0,0,0l0,0
		c1,2.7-0.3,5.6-3,6.7l-47.5,17.8c0.6,2.3,1.3,4.6,1.8,6c0.7,1.8,1.3,3.6,2.5,6l47.5-17.9c2.7-1,5.8,0.4,6.8,3.1l0,0
		c1,2.7-0.3,5.8-3.1,6.8l0,0l-45.6,17.1c3.3,5,7.9,9,13.3,11.6c9.9,4.3,19.1,4.1,29.2,0.3c5.5-2.1,10.6-5,15.2-8.6
		c2.9-2.3,7.2-1.8,9.6,1.1C1360.6,935.9,1360.7,936.1,1360.8,936.3L1360.8,936.3z"/>
	<polygon class="st4" points="1236.7,774.3 1216.1,776.4 1209,743.6 1178.5,742.9 1169.2,719.2 1157.2,723.9 1169.6,755.6 
		1198.6,756.2 1205.9,790.4 1236.9,787.3 	"/>
	<path class="st12" d="M1475.2,749.8l22.1,7.3c0,0,35-11.3,38.5-18.5s4.4-24.4,9.4-24.9s14.6,1.2,16.9,13c1.7,8.6-10.9,33.5-9,36.1
		c1.2,1.7,13.8,6.2,23,9.4c6.1,2.1,10.6,7.5,11.5,13.9l0,0c0.6,4.4-1.8,8.6-5.9,10.2l-6.3,2.5l2,6.5c1.5,4.9-1.2,10.1-6,11.7
		l-4.9,1.7l1.6,4c1.9,4.9-0.5,10.4-5.4,12.3l0,0c-0.2,0.1-0.4,0.2-0.7,0.2l-4.3,1.2l0.2,1.2c0.7,4.8-2.3,9.3-6.9,10.6l-4.3,1.1
		l-58.8-19.4c-5.5-1.8-10.6-4.8-14.9-8.7l-19.5-10.3c-2.1-1.1-3.1-3.6-2.3-5.9l18.1-52.1C1469.9,750.3,1472.7,748.9,1475.2,749.8z"
		/>
	<path class="st2" d="M1125.9,983.3l4.7-23.2l21.7-9.3c1.7-0.7,2.5-2.6,1.8-4.2c-0.3-0.7-0.8-1.2-1.4-1.6l-20.6-11.6l-2.1-23.5
		c-0.2-1.8-1.7-3.1-3.5-3c-0.7,0.1-1.4,0.4-1.9,0.9l-17.4,16l-23-5.3c-1.8-0.4-3.5,0.7-3.9,2.4c-0.2,0.7-0.1,1.4,0.2,2.1l9.8,21.5
		l-12.1,20.3c-0.9,1.5-0.4,3.5,1.1,4.4c0,0,0,0,0,0c0.6,0.4,1.3,0.5,2,0.4l23.5-2.7l15.6,17.8c1.2,1.3,3.3,1.4,4.6,0.2
		C1125.4,984.5,1125.8,983.9,1125.9,983.3z"/>
	<path class="st13" d="M842.3,1552.4c0,0-29,20.9-33.5,27.1c-6.6,9,49.1,25.8,43,15.3c-1.4-2.4-5.4-10.6-5.6-11.4
		c-0.9-4.3,10.9-15.8,10.9-15.8L842.3,1552.4z"/>
	<path class="st4" d="M866.8,1612.3l-19.7-27.8c0,0-12.3-2.8-24.9-17c0,0-11.3,4.3-18.3,13.7c10.4,10.8,21.6,20.9,33.5,30.1
		c8.5,7.1,18.2,12.6,28.6,16.3C882.7,1633.2,866.8,1612.3,866.8,1612.3z"/>
	<path class="st13" d="M600.2,1171.7c0,0,3.6,3.1,4.8,4.1c1.5,1.1,6.2,4.2,6.2,4.2s16.9,9.6,17.5,8.3s0.5-4.9-0.3-5.9
		s-3.3-1.9-4.1-2.9c-1-1.2-1-2.8,0-4c1.1-1.1,6.8,2.1,6.8,2.1s4.7,2.6,6.6,5.7c6.8,10.9,4.7,11.5,5.6,12.9
		c1.1,1.6,24.8,12.4,24.8,12.4s70.9,29.5,74.7,31.1l0,0c0.5,3.3-1.2,6.3-2.1,9.2c-1.7,10.1-4.7,10.8-7,20.6
		c-10.9-5.5-86.2-47-93.8-51.3c0,0-11.5-2-18.6-3.5s-13.4-6-15.4-6.7c-4.9-2.2-9.5-5-13.8-8.3c-6-4.7,1.8-2.9,1.8-2.9
		s12.8,6.8,13.1,5.7c0.3-0.9-6.9-4.1-13.7-9.3c-1.7-1.3-3.5-2.6-5-3.8c-4.1-3.2-3.4-6.6,1.4-3.9c2.2,1.2,4.3,2.5,6.3,4
		c2,1.6,4.3,2.4,6.1,3.5c3.7,2.1,6.3,3.7,6.3,3.5s1-0.3-0.8-1.8c-2.2-1.7-7.6-4.5-10.6-7.3c-1.7-1.6-5.5-4.7-5.5-4.7
		s-4.8-5.8-4.6-6.1c1.3-2.1,5.7,1,7.7,3.5c2.1,0.9,5.9,4.3,5.9,4.3s9.3,5.2,10,3.9c0.3-0.5-5-4.4-9.7-9c-4.3-4.2-8-9.2-7.3-10.2
		C594.9,1167.5,600.2,1171.7,600.2,1171.7z"/>
	<path class="st9" d="M798,1337.7l4.6,22.7l115.2,104.8l-82.5,83.4l22.3,22.8c0,0,121.8-89.4,126.2-101.1
		c6.8-18-87.3-137.6-87.3-137.6L798,1337.7z"/>
	<path class="st13" d="M718.1,1611.8c0,0-23.2,25.3-27.8,31.6c-6.6,9,42.5,22.2,36.4,11.7c-1.4-2.4-5.4-10.6-5.6-11.3
		c-0.9-4.3,10.9-15.8,10.9-15.8L718.1,1611.8z"/>
	<path class="st4" d="M752.6,1654.2l-32-11.7c0,0-12.1,5.5-30.5,1c-4.1,6.2-6.5,13.4-6.9,20.8c0,0,60.6,7.8,77.5,2.9
		S752.6,1654.2,752.6,1654.2z"/>
	<path class="st8" d="M802,1348.2l5.2,143l-102.3,125.3l27.7,15.2c0,0,113.1-97,125.5-124.1c7.7-16.8,33.6-168.3,33.6-168.3
		L802,1348.2z"/>
	<path class="st2" d="M894.9,1336.5c-9.4-21.2-8.3-172.7-44.8-208.2c-12.8,2.2-22,3.4-24.1,4c-1.9,15.6-4,72.9-5.3,125.4
		c-0.9,35,0,71.7-4.3,91C813.8,1360.6,903.4,1355.8,894.9,1336.5z"/>
	<path class="st10" d="M796.2,1140c-10.2,2.3-17.8,4-31.2,23.8c-12.8,19-41.4,64-41.4,64l-75.1-33.4l-3.5,38c0,0,85,44.2,97,40.2
		s45.7-53.2,48.2-56.6c0.6-0.8-2.8,52.6-2.8,61.2S771,1360,771,1360s41.3,10.2,49.4-8.3c24.7-56.7,5.7-219.6,5.7-219.6
		S803.5,1138.3,796.2,1140z"/>
	<path class="st13" d="M950.5,977.8c-3.2-2.6-4.5-9-5-13l-1.4-5.4c1.3-0.5,26.3-4.1,33.9-4.3c0.7,1.8,1,3.8,0.9,5.7
		c-1.1,6.2-9,46.3-9,46.3l-21.6,0.4C948.2,1007.5,952.9,983.7,950.5,977.8z"/>
	<path class="st10" d="M858.6,1137.1c0,0,14.8,42.1,27,36.1s80.6-75.8,81.3-79.2s5.4-89,5.4-89l-27.1-5.4l-15.6,70.1
		c0,0-50.1,47.9-60.2,52.6C863.5,1125,859.4,1130.6,858.6,1137.1z"/>
	<path class="st10" d="M898.5,1346.6c8.2,0,11.2-1.1,16.7-2.8c0,0-15.6-87.9-24.7-175.2c-3.6-34.4-6.9-48.6-21.1-46.1
		c-4.1,0.7-15.2,5-19.3,5.6c35.7,101.1,35.8,178.8,40.9,201.4C893.6,1341,895.8,1346.7,898.5,1346.6z"/>
	<path class="st14" d="M846.4,1113l3.7,15.3c0,0,0.9,13.3-5.3,14.5c-7.4,1.4-18.5-9.7-18.5-9.7l-6.4-43.1L846.4,1113z"/>
	<path class="st13" d="M846.4,1113l3.7,15.3c0,0,0.9,13.3-5.3,14.5c-7.4,1.4-18.5-9.7-18.5-9.7l-6.4-43.1L846.4,1113z"/>
	<path class="st15" d="M819.9,1090.2l26.4,22.8l2.8,11.4C839,1122,824.7,1110.8,819.9,1090.2z"/>
	<path class="st13" d="M846.5,1050.6c6.4,0,12.1,4.4,14.4,10.8c2.5,7.2,4.5,14.6,5.8,22.1c2.8,16.6-6.6,31.7-14.8,32.9
		s-27.8-4.2-32.1-27.7c-1.8-10-4.3-23.2,4-30.2C830.1,1053.1,839.1,1050.6,846.5,1050.6z"/>
	<path class="st8" d="M822.3,1106.6c0,0-28.9-25.8-30.2-45.9s17.3-30.9,33.2-31.5c6.5-0.3,13,0.1,19.5,1c15.9,2,26.3,9.1,22.6,22.1
		c-4.9,17.5-37.9,2.7-44.7,8.2c-5.6,4.5,3.5,15.3-2,19.4c-5.1,3.9-2.5,2.6-0.8,9.9C821.1,1095.3,821.9,1100.9,822.3,1106.6z"/>
	<path class="st13" d="M811.2,1083.2c0.7,4.8,3.7,8.4,6.6,8s4.7-4.7,4-9.5s-3.7-8.4-6.6-8S810.5,1078.4,811.2,1083.2z"/>
	<path class="st15" d="M951.9,959.2c3.6,2.3,6.8,5.3,9.3,8.8c0,0,12.2-7.8,11.8-10.3c-0.6-3.3-13,2.8-13,2.8L951.9,959.2z"/>
	<path class="st8" d="M637.4,797.3l329.3,169.6c17.7,9.1,40.1,0.9,50-18.3l84.1-163.4c9.9-19.3,3.6-42.3-14.1-51.4L757.4,564.2
		c-17.7-9.1-40.1-0.9-50,18.3l-84.1,163.3C613.3,765.2,619.7,788.2,637.4,797.3z"/>
	
		<rect x="806.8" y="597.4" transform="matrix(0.4577 -0.8891 0.8891 0.4577 -275.2932 1186.0806)" class="st10" width="55.7" height="442.6"/>
	
		<rect x="754.9" y="585.2" transform="matrix(0.4585 -0.8887 0.8887 0.4585 -139.978 1038.1941)" class="st2" width="54.1" height="97.6"/>
	<path class="st13" d="M951.8,959c-0.6-1.5-1.7-3.7-1.1-4.6c3.5-5.4-0.3-11.2-2.8-6.6c-1.5,2.6-4.1,8.5-3.9,11.5
		c0.2,2.2,2.4,10.6,2.4,10.6S955.1,967.8,951.8,959z"/>
	<path class="st13" d="M1944,1523.2c0,0-2,25.2-0.4,33.5c0.9,4.4,5.8,13.4,3.5,17.6s-4.8,5.2-4.8,5.2l-58.3,0.9
		c-3.2,0-1.1-2,1.5-3.8c4.2-3,7.6-5,21-11.4c0.9-0.4,4-2.4,5.2-3.1c3.1-2,5.9-4.5,8.3-7.2c4.2-4.6,4.6-26.8,4.6-26.8L1944,1523.2z"
		/>
	<path class="st16" d="M1898.4,1187.7c0,0-25.1-12.4-20.2,14.5s41.6,329.1,41.6,329.1l34.4,1.9c0,0,4.4-100.8,3.5-115.2
		s-6.7-36.9-6.7-36.9l-3-89.4l-32.4-110.4L1898.4,1187.7z"/>
	<path class="st10" d="M1911.6,1562.1c15.4,3.9,26.8,1.2,33.2-1.3c1.7,4.6,3.8,10.4,2.7,13.7c-1.4,4.1-3.3,5.9-5,5.9
		c-14.1,0.4-51.8,0-62.5,0.1c-1,0-1.7-0.7-1.8-1.7c0-0.4,0.1-0.8,0.4-1.2C1881.3,1574.5,1910.5,1562.8,1911.6,1562.1z"/>
	<path class="st13" d="M1878.2,1006c0,0-21.2-40.8-24.5-55.7S1839,860,1840,855.1s19-16.5,16.7-20.7s-19.4-4.1-23.3-3.8
		s-11.8,2.7-15.2,5.4s3.8,93.1,5.9,112.6s28.5,79.3,28.5,79.3L1878.2,1006z"/>
	<path class="st13" d="M2043.3,1323.8c0,0,17.5-18.3,21.4-25.7c2.1-4,4-14.1,8.3-15.9s7-1,7-1l45.9,36c2.5,2-0.4,2.2-3.6,2
		c-5.2-0.3-9.1-0.9-23.5-4.3c-0.9-0.2-4.7-0.7-6-0.9c-3.7-0.4-7.4-0.3-11,0.4c-6.1,0.9-20.4,18-20.4,18L2043.3,1323.8z"/>
	<path class="st10" d="M2092.8,1314.1c-9.5-12.7-20-17.9-26.6-19.9c1.6-4.6,3.4-10.6,6.4-12.4c3.7-2.3,6.2-1.8,7.6-0.7
		c11.2,8.6,40.4,32.1,48.8,38.8c0.8,0.6,0.9,1.7,0.3,2.4c0,0,0,0,0,0l0,0c-0.2,0.3-0.6,0.5-1,0.6
		C2124.2,1323.6,2094.1,1314.2,2092.8,1314.1z"/>
	<path class="st16" d="M2043.7,993.6c-10.9-22.8-35-35.4-58.3-29.3c-8.3-11.3-21.3-19.3-34.8-21.2c-26.6-3.8-60.9,9.1-57.4,36.9
		c-8.4,19.4-6.3,46.2,10.4,59.3c-3.1,25.5,22.5,48.2,52.8,45.1c12.2,16.8,33.4,26.7,53.2,22.8c4.8-0.9,12-2.7,13.2-2.4
		c-1.6-0.2,34.6,23.5,59.4-18.6C2107.6,1043.2,2082.6,995.2,2043.7,993.6z"/>
	<path class="st10" d="M1888.3,1197.4c0,0,56.2-25,57-22.1c7,22.7,29,15.4,42,55.3c5.4,16.7,11,128.1,11,128.1s22.2-18.4,53.8-50.5
		c2.4-2.5,26.2,20.2,26.2,20.2c-62.9,85-90,89.4-100.5,84.6c-21.9-9.9-68.1-148.8-68-148.8
		C1904.5,1253.4,1888.3,1197.4,1888.3,1197.4z"/>
	<path class="st13" d="M1981.5,1040.5c0,0,81.2-0.1,98.6-1.1c15.8-0.9,78.2,0.7,80.6,0.4s18.6-27.6,21.3-24.7s-9,13.6-5.4,16.3
		s42.4-3.5,41.9-0.6c-1,5.4-23.6,4.7-23.5,7.3s23.6-1.4,25.3,2.8s-22.7,1.7-23.7,3.7s22.6,5.4,20.2,9.4c-1.3,2.2-20.9-3.6-20.8-0.7
		s14.4,9.7,12.6,12s-11.2-7.2-19.5-7.4s-14.2-4.4-27.4-0.8c-6.5,1.8-56.3,7.9-98.4,11.5c-43.1,3.7-78.5,4.9-78.5,4.9L1981.5,1040.5z
		"/>
	<path class="st2" d="M1861,1098c-1.1-13,1.5-23.1,2.1-27.4c-3.9-13.6-12.3-42.5-15.4-48.1c0,0,14.2-27.2,28.6-27
		c0,0,14.8,33.3,26.2,39.3c0.2,0,4.1,1.7,5.8,1.7c11.1-0.1,49.6-1.2,56.8-1.4l-4.1,54.7c-27.9,54.8-20.4,83.6-9.8,94.2
		c5,5-69.8,25.3-73.2,18.2C1874.1,1193.8,1863.2,1124.3,1861,1098z"/>
	<path class="st2" d="M1945.6,1037.1c7.1-3.4,58.6-1.7,58.6-1.7s7.2,35.9,1.4,44.5c0,0-46,6.8-44.7,10.6L1945.6,1037.1z"/>
	<path class="st13" d="M1932.1,1014.1c0,0-0.9,19.6,0,27.6s-8.4,27.2-25.6,27.6s-2.5-18.3-1-26.3s3.3-39.4,3.3-39.4L1932.1,1014.1z"
		/>
	<path class="st15" d="M1908.8,1003.6c0,0-0.4,7.3-1,15.7c5.4,6.5,13.8,9.8,24,5.9c0.1-6,0.3-11.1,0.3-11.1L1908.8,1003.6z"/>
	<path class="st13" d="M1933.5,955.8c6.4,2.3,11.9,6.8,15.3,12.7c5.5,9.8,7.8,37.6-13.3,49.1s-35.5-7.8-34.6-25.5
		S1907.3,950.8,1933.5,955.8z"/>
	<path class="st13" d="M1896.7,986.2c1.4,4.4,4.7,7.3,7.2,6.5s3.5-5.1,2.1-9.5s-4.7-7.3-7.2-6.5S1895.2,981.8,1896.7,986.2z"/>
	<path class="st16" d="M1930.6,955c0,0,10.7,29.3,21.6,32.6s9.8,17.6,9.8,17.6s2-33-7.9-41.3S1930.6,955,1930.6,955z"/>
	<path class="st13" d="M1947.4,993.2c-1.8,4.5-0.8,9.2,2.3,10.4s6.9-1.5,8.8-6s0.8-9.2-2.3-10.4S1949.2,988.7,1947.4,993.2z"/>
	<path class="st15" d="M1815.2,843c0,0,23.8,1,26.6,1s10.9-8.4,10.9-8.4L1815.2,843z"/>
	
		<ellipse transform="matrix(0.7071 -0.7071 0.7071 0.7071 0.7581 1505.2771)" class="st2" cx="1817.4" cy="751.7" rx="92.4" ry="92.4"/>
	<path class="st4" d="M1880.9,707.1c24.6,35,16.2,83.4-18.9,108s-83.4,16.2-108-18.9c-24.6-35-16.2-83.4,18.9-108
		C1807.9,663.6,1856.2,672.1,1880.9,707.1C1880.9,707.1,1880.9,707.1,1880.9,707.1L1880.9,707.1z"/>
	<path class="st2" d="M1826.4,806.2l-3.4-12.5c-5.4,1.2-11,1.7-16.5,1.5c-4.2-0.2-7.4-3.6-7.5-7.8v-0.5c-0.1-4.3,3.4-7.9,7.7-8
		c0,0,0,0,0,0h0.6c5,0.4,10.1-0.1,14.9-1.4c7.5-2,11.8-6.3,10.4-11.6c-1.3-5-6.4-7-17-7.7c-15.4-0.9-26.7-4.9-30.2-17.7
		c-3.1-11.6,2.6-22.8,15.9-29.4l-3.4-12.5l12.8-3.4l3.1,11.6c4.1-1,8.3-1.5,12.5-1.5c4.3,0,7.8,3.5,7.9,7.8l0,0
		c0.1,4.3-3.4,7.9-7.7,8c0,0,0,0,0,0h-0.3c-4.1-0.1-8.1,0.4-12,1.5c-8.5,2.3-10.3,6.7-9.3,10.4c1.2,4.3,6.5,5.9,18.8,7
		c17.2,1.3,25.4,6.8,28.6,18.7s-2.4,23.9-16.8,30.7l3.6,13.4L1826.4,806.2z"/>
	<path class="st13" d="M1841.8,844.1l9.8-8.8c0,0-4.6-5.5-2.7-6.6c3.1-1.7,8.5,5,8,6.6s-6.2,6.9-6.2,6.9L1841.8,844.1z"/>
</g>
</svg>
